  0
SECTION
  2
HEADER
  9
$LUNITS
  70
1
  9
$AUNITS
  70
3
  0
ENDSEC
  0
SECTION
  2
TABLES
  0
ENDSEC
  0
SECTION
  2
BLOCKS
  0
ENDSEC
  0
SECTION
  2
ENTITIES
  0
LINE
  8
0
  10
2.484121374187340E-002 
  20
1.028956763769287E-002 
  30
0.000000000000000E+000 
  11
2.292779658004795E-002 
  21
1.490896530024930E-002 
  31
0.000000000000000E+000 
  0
LINE
  8
0
  10
2.292779658004795E-002 
  20
1.490896530024930E-002 
  30
0.000000000000000E+000 
  11
1.830839891749151E-002 
  21
1.299554813842385E-002 
  31
0.000000000000000E+000 
  0
LINE
  8
0
  10
1.830839891749151E-002 
  20
1.299554813842385E-002 
  30
0.000000000000000E+000 
  11
2.022181607931697E-002 
  21
8.376150475867417E-003 
  31
0.000000000000000E+000 
  0
POLYLINE
  8
0
  66
1
  10
0.000000000000000E+000 
  20
0.000000000000000E+000 
  30
0.000000000000000E+000 
  0
VERTEX
  8
0
  10
1.830839891749151E-002 
  20
1.299554813842385E-002 
  30
0.000000000000000E+000 
  0
VERTEX
  8
0
  10
1.806246750080267E-002 
  20
1.333525440786726E-002 
  30
0.000000000000000E+000 
  0
VERTEX
  8
0
  10
1.781023378493859E-002 
  20
1.367030778241397E-002 
  30
0.000000000000000E+000 
  0
VERTEX
  8
0
  10
1.755178577849164E-002 
  20
1.400059135629758E-002 
  30
0.000000000000000E+000 
  0
VERTEX
  8
0
  10
1.728721365832485E-002 
  20
1.432598988801552E-002 
  30
0.000000000000000E+000 
  0
VERTEX
  8
0
  10
1.701660973810769E-002 
  20
1.464638984053868E-002 
  30
0.000000000000000E+000 
  0
VERTEX
  8
0
  10
1.674006843610628E-002 
  20
1.496167942092646E-002 
  30
0.000000000000000E+000 
  0
VERTEX
  8
0
  10
1.645768624223925E-002 
  20
1.527174861933317E-002 
  30
0.000000000000000E+000 
  0
VERTEX
  8
0
  10
1.616956168441081E-002 
  20
1.557648924739236E-002 
  30
0.000000000000000E+000 
  0
VERTEX
  8
0
  10
1.587579529413267E-002 
  20
1.587579497596548E-002 
  30
0.000000000000000E+000 
  0
SEQEND
  0
POLYLINE
  8
0
  66
1
  10
0.000000000000000E+000 
  20
0.000000000000000E+000 
  30
0.000000000000000E+000 
  0
VERTEX
  8
0
  10
2.447967596909064E-002 
  20
1.591808607993833E-002 
  30
0.000000000000000E+000 
  0
VERTEX
  8
0
  10
2.410374467563833E-002 
  20
1.648179276085089E-002 
  30
0.000000000000000E+000 
  0
VERTEX
  8
0
  10
2.371483512931789E-002 
  20
1.703662509974526E-002 
  30
0.000000000000000E+000 
  0
VERTEX
  8
0
  10
2.331315673188421E-002 
  20
1.758228435655055E-002 
  30
0.000000000000000E+000 
  0
VERTEX
  8
0
  10
2.289892576026371E-002 
  20
1.811847673028642E-002 
  30
0.000000000000000E+000 
  0
VERTEX
  8
0
  10
2.247236525010369E-002 
  20
1.864491351725538E-002 
  30
0.000000000000000E+000 
  0
VERTEX
  8
0
  10
2.203370487568248E-002 
  20
1.916131126649024E-002 
  30
0.000000000000000E+000 
  0
VERTEX
  8
0
  10
2.158318082624535E-002 
  20
1.966739193237361E-002 
  30
0.000000000000000E+000 
  0
VERTEX
  8
0
  10
2.112103567883233E-002 
  20
2.016288302434678E-002 
  30
0.000000000000000E+000 
  0
VERTEX
  8
0
  10
2.064751826766669E-002 
  20
2.064751775362768E-002 
  30
0.000000000000000E+000 
  0
SEQEND
  0
POLYLINE
  8
0
  66
1
  10
0.000000000000000E+000 
  20
0.000000000000000E+000 
  30
0.000000000000000E+000 
  0
VERTEX
  8
0
  10
2.087310975762050E-002 
  20
1.556025897855283E-002 
  30
0.000000000000000E+000 
  0
VERTEX
  8
0
  10
2.062006631141911E-002 
  20
1.589406290870854E-002 
  30
0.000000000000000E+000 
  0
VERTEX
  8
0
  10
2.036168519821290E-002 
  20
1.622375253516225E-002 
  30
0.000000000000000E+000 
  0
VERTEX
  8
0
  10
2.009803330199349E-002 
  20
1.654924251515055E-002 
  30
0.000000000000000E+000 
  0
VERTEX
  8
0
  10
1.982917887113633E-002 
  20
1.687044859302166E-002 
  30
0.000000000000000E+000 
  0
VERTEX
  8
0
  10
1.955519150073402E-002 
  20
1.718728762204571E-002 
  30
0.000000000000000E+000 
  0
VERTEX
  8
0
  10
1.927614211458113E-002 
  20
1.749967758593790E-002 
  30
0.000000000000000E+000 
  0
VERTEX
  8
0
  10
1.899210294681495E-002 
  20
1.780753762008909E-002 
  30
0.000000000000000E+000 
  0
VERTEX
  8
0
  10
1.870314752321718E-002 
  20
1.811078803249821E-002 
  30
0.000000000000000E+000 
  0
VERTEX
  8
0
  10
1.840935064218113E-002 
  20
1.840935032440119E-002 
  30
0.000000000000000E+000 
  0
SEQEND
  0
POLYLINE
  8
0
  66
1
  10
0.000000000000000E+000 
  20
0.000000000000000E+000 
  30
0.000000000000000E+000 
  0
VERTEX
  8
0
  10
2.260242794579671E-002 
  20
1.539777104957623E-002 
  30
0.000000000000000E+000 
  0
VERTEX
  8
0
  10
2.246146342274970E-002 
  20
1.556659708425889E-002 
  30
0.000000000000000E+000 
  0
VERTEX
  8
0
  10
2.229040900281545E-002 
  20
1.570484907218492E-002 
  30
0.000000000000000E+000 
  0
VERTEX
  8
0
  10
2.209577179657214E-002 
  20
1.580726774572807E-002 
  30
0.000000000000000E+000 
  0
VERTEX
  8
0
  10
2.188495603142376E-002 
  20
1.586995697853119E-002 
  30
0.000000000000000E+000 
  0
VERTEX
  8
0
  10
2.166598138611331E-002 
  20
1.589053199871836E-002 
  30
0.000000000000000E+000 
  0
VERTEX
  8
0
  10
2.144717791274584E-002 
  20
1.586821010841156E-002 
  30
0.000000000000000E+000 
  0
VERTEX
  8
0
  10
2.123686915184509E-002 
  20
1.580384045847517E-002 
  30
0.000000000000000E+000 
  0
VERTEX
  8
0
  10
2.104305549511838E-002 
  20
1.569987174582198E-002 
  30
0.000000000000000E+000 
  0
VERTEX
  8
0
  10
2.087310984118104E-002 
  20
1.556025906211326E-002 
  30
0.000000000000000E+000 
  0
SEQEND
  0
POLYLINE
  8
0
  66
1
  10
0.000000000000000E+000 
  20
0.000000000000000E+000 
  30
0.000000000000000E+000 
  0
VERTEX
  8
0
  10
2.292779658004794E-002 
  20
1.490896530024929E-002 
  30
0.000000000000000E+000 
  0
VERTEX
  8
0
  10
2.289216374986865E-002 
  20
1.496362059092972E-002 
  30
0.000000000000000E+000 
  0
VERTEX
  8
0
  10
2.285640063264969E-002 
  20
1.501819071858882E-002 
  30
0.000000000000000E+000 
  0
VERTEX
  8
0
  10
2.282050743193104E-002 
  20
1.507267537264956E-002 
  30
0.000000000000000E+000 
  0
VERTEX
  8
0
  10
2.278448435199306E-002 
  20
1.512707424302136E-002 
  30
0.000000000000000E+000 
  0
VERTEX
  8
0
  10
2.274833159785524E-002 
  20
1.518138702010188E-002 
  30
0.000000000000000E+000 
  0
VERTEX
  8
0
  10
2.271204937527513E-002 
  20
1.523561339477874E-002 
  30
0.000000000000000E+000 
  0
VERTEX
  8
0
  10
2.267563789074713E-002 
  20
1.528975305843132E-002 
  30
0.000000000000000E+000 
  0
VERTEX
  8
0
  10
2.263909735150129E-002 
  20
1.534380570293251E-002 
  30
0.000000000000000E+000 
  0
VERTEX
  8
0
  10
2.260242796550218E-002 
  20
1.539777102065042E-002 
  30
0.000000000000000E+000 
  0
SEQEND
  0
LINE
  8
0
  10
2.292779658004795E-002 
  20
1.490896530024930E-002 
  30
0.000000000000000E+000 
  11
2.447967596909064E-002 
  21
1.591808607993833E-002 
  31
0.000000000000000E+000 
  0
POLYLINE
  8
0
  66
1
  10
0.000000000000000E+000 
  20
0.000000000000000E+000 
  30
0.000000000000000E+000 
  0
VERTEX
  8
0
  10
2.697728234932958E-002 
  20
1.117435622506063E-002 
  30
0.000000000000000E+000 
  0
VERTEX
  8
0
  10
2.674339339716057E-002 
  20
1.172309300503537E-002 
  30
0.000000000000000E+000 
  0
VERTEX
  8
0
  10
2.649834413135057E-002 
  20
1.226693760873181E-002 
  30
0.000000000000000E+000 
  0
VERTEX
  8
0
  10
2.624223681366658E-002 
  20
1.280566308378612E-002 
  30
0.000000000000000E+000 
  0
VERTEX
  8
0
  10
2.597517832052285E-002 
  20
1.333904461410336E-002 
  30
0.000000000000000E+000 
  0
VERTEX
  8
0
  10
2.569728009838017E-002 
  20
1.386685961367585E-002 
  30
0.000000000000000E+000 
  0
VERTEX
  8
0
  10
2.540865811723807E-002 
  20
1.438888781947068E-002 
  30
0.000000000000000E+000 
  0
VERTEX
  8
0
  10
2.510943282223922E-002 
  20
1.490491138334797E-002 
  30
0.000000000000000E+000 
  0
VERTEX
  8
0
  10
2.479972908340634E-002 
  20
1.541471496297124E-002 
  30
0.000000000000000E+000 
  0
VERTEX
  8
0
  10
2.447967614353260E-002 
  20
1.591808581167222E-002 
  30
0.000000000000000E+000 
  0
SEQEND
  0
LINE
  8
0
  10
1.830839891749151E-002 
  20
1.299554813842385E-002 
  30
0.000000000000000E+000 
  11
2.087310975762049E-002 
  21
1.556025897855283E-002 
  31
0.000000000000000E+000 
  0
POLYLINE
  8
0
  66
1
  10
0.000000000000000E+000 
  20
0.000000000000000E+000 
  30
0.000000000000000E+000 
  0
VERTEX
  8
0
  10
4.079026527476133E-002 
  20
8.306801597470785E-003 
  30
0.000000000000000E+000 
  0
VERTEX
  8
0
  10
4.073312261197061E-002 
  20
8.582622923285906E-003 
  30
0.000000000000000E+000 
  0
VERTEX
  8
0
  10
4.067411488419347E-002 
  20
8.858051272857619E-003 
  30
0.000000000000000E+000 
  0
VERTEX
  8
0
  10
4.061324479324212E-002 
  20
9.133074035029770E-003 
  30
0.000000000000000E+000 
  0
VERTEX
  8
0
  10
4.055051512620157E-002 
  20
9.407678617216969E-003 
  30
0.000000000000000E+000 
  0
VERTEX
  8
0
  10
4.048592875530203E-002 
  20
9.681852445981224E-003 
  30
0.000000000000000E+000 
  0
VERTEX
  8
0
  10
4.041948863778740E-002 
  20
9.955582967607625E-003 
  30
0.000000000000000E+000 
  0
VERTEX
  8
0
  10
4.035119781577991E-002 
  20
1.022885764867919E-002 
  30
0.000000000000000E+000 
  0
VERTEX
  8
0
  10
4.028105941614074E-002 
  20
1.050166397665067E-002 
  30
0.000000000000000E+000 
  0
VERTEX
  8
0
  10
4.020907665032696E-002 
  20
1.077398946042151E-002 
  30
0.000000000000000E+000 
  0
SEQEND
  0
POLYLINE
  8
0
  66
1
  10
0.000000000000000E+000 
  20
0.000000000000000E+000 
  30
0.000000000000000E+000 
  0
VERTEX
  8
0
  10
4.446339330639596E-002 
  20
5.853716779997721E-003 
  30
0.000000000000000E+000 
  0
VERTEX
  8
0
  10
4.433940500206175E-002 
  20
6.394292078466013E-003 
  30
0.000000000000000E+000 
  0
VERTEX
  8
0
  10
4.411599787241061E-002 
  20
6.901917932168128E-003 
  30
0.000000000000000E+000 
  0
VERTEX
  8
0
  10
4.380113929830105E-002 
  20
7.358490852122281E-003 
  30
0.000000000000000E+000 
  0
VERTEX
  8
0
  10
4.340605809852877E-002 
  20
7.747728052955191E-003 
  30
0.000000000000000E+000 
  0
VERTEX
  8
0
  10
4.294484407583882E-002 
  20
8.055748146780123E-003 
  30
0.000000000000000E+000 
  0
VERTEX
  8
0
  10
4.243394553150886E-002 
  20
8.271566195903194E-003 
  30
0.000000000000000E+000 
  0
VERTEX
  8
0
  10
4.189158266866806E-002 
  20
8.387485469265746E-003 
  30
0.000000000000000E+000 
  0
VERTEX
  8
0
  10
4.133709780418220E-002 
  20
8.399371931391085E-003 
  30
0.000000000000000E+000 
  0
VERTEX
  8
0
  10
4.079026556253419E-002 
  20
8.306801674721011E-003 
  30
0.000000000000000E+000 
  0
SEQEND
  0
POLYLINE
  8
0
  66
1
  10
0.000000000000000E+000 
  20
0.000000000000000E+000 
  30
0.000000000000000E+000 
  0
VERTEX
  8
0
  10
3.231480905033197E-002 
  20
6.031634037965831E-003 
  30
0.000000000000000E+000 
  0
VERTEX
  8
0
  10
3.226183345786226E-002 
  20
6.308850534330699E-003 
  30
0.000000000000000E+000 
  0
VERTEX
  8
0
  10
3.220647977558720E-002 
  20
6.585601991622115E-003 
  30
0.000000000000000E+000 
  0
VERTEX
  8
0
  10
3.214875208374696E-002 
  20
6.861868009889156E-003 
  30
0.000000000000000E+000 
  0
VERTEX
  8
0
  10
3.208865463757506E-002 
  20
7.137628224963678E-003 
  30
0.000000000000000E+000 
  0
VERTEX
  8
0
  10
3.202619186698474E-002 
  20
7.412862309961361E-003 
  30
0.000000000000000E+000 
  0
VERTEX
  8
0
  10
3.196136837624249E-002 
  20
7.687549976780096E-003 
  30
0.000000000000000E+000 
  0
VERTEX
  8
0
  10
3.189418894362858E-002 
  20
7.961670977595429E-003 
  30
0.000000000000000E+000 
  0
VERTEX
  8
0
  10
3.182465852108488E-002 
  20
8.235205106353113E-003 
  30
0.000000000000000E+000 
  0
VERTEX
  8
0
  10
3.175278223384983E-002 
  20
8.508132200258492E-003 
  30
0.000000000000000E+000 
  0
SEQEND
  0
LINE
  8
0
  10
3.231480905033197E-002 
  20
6.031634037965831E-003 
  30
0.000000000000000E+000 
  11
3.859896418441382E-002 
  21
7.718564572601701E-003 
  31
0.000000000000000E+000 
  0
LINE
  8
0
  10
3.859896418441382E-002 
  20
7.718564572601701E-003 
  30
0.000000000000000E+000 
  11
4.079026527476134E-002 
  21
8.306801597470785E-003 
  31
0.000000000000000E+000 
  0
LINE
  8
0
  10
2.968567505010228E-002 
  20
4.331362005159009E-003 
  30
0.000000000000000E+000 
  11
3.108786135404524E-002 
  21
4.515963334155939E-003 
  31
0.000000000000000E+000 
  0
POLYLINE
  8
0
  66
1
  10
0.000000000000000E+000 
  20
0.000000000000000E+000 
  30
0.000000000000000E+000 
  0
VERTEX
  8
0
  10
2.968567505010229E-002 
  20
4.331362005159007E-003 
  30
0.000000000000000E+000 
  0
VERTEX
  8
0
  10
2.962690544932825E-002 
  20
4.716616742598981E-003 
  30
0.000000000000000E+000 
  0
VERTEX
  8
0
  10
2.956313630566907E-002 
  20
5.101075550551224E-003 
  30
0.000000000000000E+000 
  0
VERTEX
  8
0
  10
2.949437838017335E-002 
  20
5.484673551558286E-003 
  30
0.000000000000000E+000 
  0
VERTEX
  8
0
  10
2.942064327574702E-002 
  20
5.867346013423943E-003 
  30
0.000000000000000E+000 
  0
VERTEX
  8
0
  10
2.934194343519540E-002 
  20
6.249028360136798E-003 
  30
0.000000000000000E+000 
  0
VERTEX
  8
0
  10
2.925829213912345E-002 
  20
6.629656182767471E-003 
  30
0.000000000000000E+000 
  0
VERTEX
  8
0
  10
2.916970350369471E-002 
  20
7.009165250337611E-003 
  30
0.000000000000000E+000 
  0
VERTEX
  8
0
  10
2.907619247824915E-002 
  20
7.387491520658885E-003 
  30
0.000000000000000E+000 
  0
VERTEX
  8
0
  10
2.897777484278050E-002 
  20
7.764571151140098E-003 
  30
0.000000000000000E+000 
  0
SEQEND
  0
LINE
  8
0
  10
3.108786135404524E-002 
  20
4.515963334155939E-003 
  30
0.000000000000000E+000 
  11
3.231480905033197E-002 
  21
6.031634037965831E-003 
  31
0.000000000000000E+000 
  0
LINE
  8
0
  10
3.859896418441382E-002 
  20
7.718564572601701E-003 
  30
0.000000000000000E+000 
  11
3.894020603519441E-002 
  21
5.126575381101130E-003 
  31
0.000000000000000E+000 
  0
LINE
  8
0
  10
3.894020603519441E-002 
  20
5.126575381101130E-003 
  30
0.000000000000000E+000 
  11
3.254480972288076E-002 
  21
4.284605483523817E-003 
  31
0.000000000000000E+000 
  0
LINE
  8
0
  10
3.254480972288076E-002 
  20
4.284605483523817E-003 
  30
0.000000000000000E+000 
  11
3.231480905033197E-002 
  21
6.031634037965831E-003 
  31
0.000000000000000E+000 
  0
LINE
  8
0
  10
4.446339330639593E-002 
  20
5.853716779997725E-003 
  30
0.000000000000000E+000 
  11
3.894020603519441E-002 
  21
5.126575381101130E-003 
  31
0.000000000000000E+000 
  0
LINE
  8
0
  10
3.114262341893781E-002 
  20
4.100004154526888E-003 
  30
0.000000000000000E+000 
  11
3.108786135404524E-002 
  21
4.515963334155939E-003 
  31
0.000000000000000E+000 
  0
POLYLINE
  8
0
  66
1
  10
0.000000000000000E+000 
  20
0.000000000000000E+000 
  30
0.000000000000000E+000 
  0
VERTEX
  8
0
  10
1.000000000000000E-002 
  20
1.301042606982605E-018 
  30
0.000000000000000E+000 
  0
VERTEX
  8
0
  10
9.961946985450850E-003 
  20
8.715573756596486E-004 
  30
0.000000000000000E+000 
  0
VERTEX
  8
0
  10
9.848077548186656E-003 
  20
1.736481674220020E-003 
  30
0.000000000000000E+000 
  0
VERTEX
  8
0
  10
9.659258303277995E-003 
  20
2.588190300297702E-003 
  30
0.000000000000000E+000 
  0
VERTEX
  8
0
  10
9.396926279019608E-003 
  20
3.420201237744747E-003 
  30
0.000000000000000E+000 
  0
VERTEX
  8
0
  10
9.063077980278656E-003 
  20
4.226182381699606E-003 
  30
0.000000000000000E+000 
  0
VERTEX
  8
0
  10
8.660254193888979E-003 
  20
4.999999729722829E-003 
  30
0.000000000000000E+000 
  0
VERTEX
  8
0
  10
8.191520651731418E-003 
  20
5.735764065253874E-003 
  30
0.000000000000000E+000 
  0
VERTEX
  8
0
  10
7.660444698665856E-003 
  20
6.427875778099799E-003 
  30
0.000000000000000E+000 
  0
VERTEX
  8
0
  10
7.071068142886044E-003 
  20
7.071067480844891E-003 
  30
0.000000000000000E+000 
  0
SEQEND
  0
LINE
  8
0
  10
0.000000000000000E+000 
  20
5.500000000000000E-002 
  30
0.000000000000000E+000 
  11
4.500000000000000E-002 
  21
5.500000000000000E-002 
  31
0.000000000000000E+000 
  0
POLYLINE
  8
0
  66
1
  10
0.000000000000000E+000 
  20
0.000000000000000E+000 
  30
0.000000000000000E+000 
  0
VERTEX
  8
0
  10
5.500000000000000E-002 
  20
4.499999999999998E-002 
  30
0.000000000000000E+000 
  0
VERTEX
  8
0
  10
5.484807754818664E-002 
  20
4.673648167422000E-002 
  30
0.000000000000000E+000 
  0
VERTEX
  8
0
  10
5.439692627901957E-002 
  20
4.842020123774472E-002 
  30
0.000000000000000E+000 
  0
VERTEX
  8
0
  10
5.366025419388894E-002 
  20
4.999999972972280E-002 
  30
0.000000000000000E+000 
  0
VERTEX
  8
0
  10
5.266044469866581E-002 
  20
5.142787577809976E-002 
  30
0.000000000000000E+000 
  0
VERTEX
  8
0
  10
5.142787649532232E-002 
  20
5.266044409684463E-002 
  30
0.000000000000000E+000 
  0
VERTEX
  8
0
  10
5.000000054055429E-002 
  20
5.366025372575514E-002 
  30
0.000000000000000E+000 
  0
VERTEX
  8
0
  10
4.842020211754844E-002 
  20
5.439692595879720E-002 
  30
0.000000000000000E+000 
  0
VERTEX
  8
0
  10
4.673648259626356E-002 
  20
5.484807738560545E-002 
  30
0.000000000000000E+000 
  0
VERTEX
  8
0
  10
4.500000093626754E-002 
  20
5.499999999999997E-002 
  30
0.000000000000000E+000 
  0
SEQEND
  0
LINE
  8
0
  10
5.500000000000000E-002 
  20
4.500000000000000E-002 
  30
0.000000000000000E+000 
  11
5.500000000000000E-002 
  21
0.000000000000000E+000 
  31
0.000000000000000E+000 
  0
POLYLINE
  8
0
  66
1
  10
0.000000000000000E+000 
  20
0.000000000000000E+000 
  30
0.000000000000000E+000 
  0
VERTEX
  8
0
  10
2.960000000000000E-002 
  20
-8.673617379884035E-019 
  30
0.000000000000000E+000 
  0
VERTEX
  8
0
  10
2.948736307693451E-002 
  20
2.579809831952561E-003 
  30
0.000000000000000E+000 
  0
VERTEX
  8
0
  10
2.915030954263249E-002 
  20
5.139985755691251E-003 
  30
0.000000000000000E+000 
  0
VERTEX
  8
0
  10
2.859140457770286E-002 
  20
7.661043288881196E-003 
  30
0.000000000000000E+000 
  0
VERTEX
  8
0
  10
2.781490178589803E-002 
  20
1.012379566372445E-002 
  30
0.000000000000000E+000 
  0
VERTEX
  8
0
  10
2.682671082162481E-002 
  20
1.250949984983083E-002 
  30
0.000000000000000E+000 
  0
VERTEX
  8
0
  10
2.563435241391137E-002 
  20
1.479999919997957E-002 
  30
0.000000000000000E+000 
  0
VERTEX
  8
0
  10
2.424690112912498E-002 
  20
1.697786163315146E-002 
  30
0.000000000000000E+000 
  0
VERTEX
  8
0
  10
2.267491630805093E-002 
  20
1.902651230317540E-002 
  30
0.000000000000000E+000 
  0
VERTEX
  8
0
  10
2.093036170294267E-002 
  20
2.093035974330087E-002 
  30
0.000000000000000E+000 
  0
SEQEND
  0
LINE
  8
0
  10
2.484121374187340E-002 
  20
1.028956763769287E-002 
  30
0.000000000000000E+000 
  11
2.675463090369885E-002 
  21
5.670169975136431E-003 
  31
-1.210093099096585E-018 
  0
LINE
  8
0
  10
2.675463090369885E-002 
  20
5.670169975136431E-003 
  30
-1.210093099096585E-018 
  11
2.213523324114242E-002 
  21
3.756752813310980E-003 
  31
-1.147873213024344E-018 
  0
LINE
  8
0
  10
2.213523324114242E-002 
  20
3.756752813310980E-003 
  30
-1.147873213024344E-018 
  11
2.022181607931697E-002 
  21
8.376150475867417E-003 
  31
0.000000000000000E+000 
  0
POLYLINE
  8
0
  66
1
  10
0.000000000000000E+000 
  20
0.000000000000000E+000 
  30
0.000000000000000E+000 
  0
VERTEX
  8
0
  10
2.213523324114242E-002 
  20
3.756752813310981E-003 
  30
-1.147873213024344E-018 
  0
VERTEX
  8
0
  10
2.220154207542994E-002 
  20
3.342644434128466E-003 
  30
-1.218097607380514E-018 
  0
VERTEX
  8
0
  10
2.226010441769999E-002 
  20
2.927369749995684E-003 
  30
-1.287896986962484E-018 
  0
VERTEX
  8
0
  10
2.231089983456484E-002 
  20
2.511073657245265E-003 
  30
-1.357246997590939E-018 
  0
VERTEX
  8
0
  10
2.235391060264789E-002 
  20
2.093901408596530E-003 
  30
-1.426123441878962E-018 
  0
VERTEX
  8
0
  10
2.238912171476764E-002 
  20
1.675998562474336E-003 
  30
-1.494502287674911E-018 
  0
VERTEX
  8
0
  10
2.241652088517395E-002 
  20
1.257510932221323E-003 
  30
-1.562359676447638E-018 
  0
VERTEX
  8
0
  10
2.243609855383470E-002 
  20
8.385845352211463E-004 
  30
-1.629671931611135E-018 
  0
VERTEX
  8
0
  10
2.244784788977153E-002 
  20
4.193655419505895E-004 
  30
-1.696415566785694E-018 
  0
VERTEX
  8
0
  10
2.245176479344320E-002 
  20
2.249781836521914E-010 
  30
-1.762567293992698E-018 
  0
SEQEND
  0
POLYLINE
  8
0
  66
1
  10
0.000000000000000E+000 
  20
0.000000000000000E+000 
  30
0.000000000000000E+000 
  0
VERTEX
  8
0
  10
2.856553148962894E-002 
  20
6.053958268357783E-003 
  30
-1.291998856274532E-018 
  0
VERTEX
  8
0
  10
2.869830873944202E-002 
  20
5.389533884823995E-003 
  30
-1.406743255600548E-018 
  0
VERTEX
  8
0
  10
2.881563387122445E-002 
  20
4.722207598098816E-003 
  30
-1.520730217858697E-018 
  0
VERTEX
  8
0
  10
2.891744371324718E-002 
  20
4.052338718713098E-003 
  30
-1.633898368700727E-018 
  0
VERTEX
  8
0
  10
2.900368344772600E-002 
  20
3.380287926213599E-003 
  30
-1.746186774653523E-018 
  0
VERTEX
  8
0
  10
2.907430664033725E-002 
  20
2.706417074961243E-003 
  30
-1.857534975927691E-018 
  0
VERTEX
  8
0
  10
2.912927526521962E-002 
  20
2.031088999296747E-003 
  30
-1.967883018971119E-018 
  0
VERTEX
  8
0
  10
2.916855972544855E-002 
  20
1.354667318178598E-003 
  30
-2.077171488749944E-018 
  0
VERTEX
  8
0
  10
2.919213886897209E-002 
  20
6.775162393986281E-004 
  30
-2.185341540739572E-018 
  0
VERTEX
  8
0
  10
2.920000000000001E-002 
  20
3.634804766200483E-010 
  30
-2.292334932608518E-018 
  0
SEQEND
  0
POLYLINE
  8
0
  66
1
  10
0.000000000000000E+000 
  20
0.000000000000000E+000 
  30
0.000000000000000E+000 
  0
VERTEX
  8
0
  10
2.576228209481812E-002 
  20
3.756752813310980E-003 
  30
-1.432613315646036E-018 
  0
VERTEX
  8
0
  10
2.581938838067413E-002 
  20
3.341789053967342E-003 
  30
-1.502249570001586E-018 
  0
VERTEX
  8
0
  10
2.586981111394777E-002 
  20
2.925960246136423E-003 
  30
-1.571496955192423E-018 
  0
VERTEX
  8
0
  10
2.591353724231633E-002 
  20
2.509374030388988E-003 
  30
-1.640337545986035E-018 
  0
VERTEX
  8
0
  10
2.595055544692618E-002 
  20
2.092138243356839E-003 
  30
-1.708753522451848E-018 
  0
VERTEX
  8
0
  10
2.598085614532270E-002 
  20
1.674360889818438E-003 
  30
-1.776727174574061E-018 
  0
VERTEX
  8
0
  10
2.600443149393084E-002 
  20
1.256150114740993E-003 
  30
-1.844240906836024E-018 
  0
VERTEX
  8
0
  10
2.602127539008542E-002 
  20
8.376141752863241E-004 
  30
-1.911277242774972E-018 
  0
VERTEX
  8
0
  10
2.603138347361090E-002 
  20
4.188614127875975E-004 
  30
-1.977818829505953E-018 
  0
VERTEX
  8
0
  10
2.603475312795005E-002 
  20
2.247043527810189E-010 
  30
-2.043848442213749E-018 
  0
SEQEND
  0
POLYLINE
  8
0
  66
1
  10
0.000000000000000E+000 
  20
0.000000000000000E+000 
  30
0.000000000000000E+000 
  0
VERTEX
  8
0
  10
2.687019839606630E-002 
  20
5.094461747439904E-003 
  30
-1.309557196179193E-018 
  0
VERTEX
  8
0
  10
2.688989945987798E-002 
  20
4.875406743321698E-003 
  30
-1.345497481765425E-018 
  0
VERTEX
  8
0
  10
2.686670463776557E-002 
  20
4.656694084859246E-003 
  30
-1.378016490568522E-018 
  0
VERTEX
  8
0
  10
2.680149628794223E-002 
  20
4.446643857870899E-003 
  30
-1.405877161387403E-018 
  0
VERTEX
  8
0
  10
2.669675501244727E-002 
  20
4.253246619130974E-003 
  30
-1.428019641656607E-018 
  0
VERTEX
  8
0
  10
2.655646529213775E-002 
  20
4.083859426226626E-003 
  30
-1.443601605479838E-018 
  0
VERTEX
  8
0
  10
2.638596391236762E-002 
  20
3.944925966466129E-003 
  30
-1.452030296694106E-018 
  0
VERTEX
  8
0
  10
2.619173694541916E-002 
  20
3.841731431462868E-003 
  30
-1.452985078008765E-018 
  0
VERTEX
  8
0
  10
2.598117301271285E-002 
  20
3.778201462253115E-003 
  30
-1.446429628423781E-018 
  0
VERTEX
  8
0
  10
2.576228221299049E-002 
  20
3.756752813310877E-003 
  30
-1.432613324923130E-018 
  0
SEQEND
  0
POLYLINE
  8
0
  66
1
  10
0.000000000000000E+000 
  20
0.000000000000000E+000 
  30
0.000000000000000E+000 
  0
VERTEX
  8
0
  10
2.675463090369885E-002 
  20
5.670169975136433E-003 
  30
-1.210093099096585E-018 
  0
VERTEX
  8
0
  10
2.676808181451405E-002 
  20
5.606326632615938E-003 
  30
-1.221173052841113E-018 
  0
VERTEX
  8
0
  10
2.678138037913011E-002 
  20
5.542451382596075E-003 
  30
-1.232246056477136E-018 
  0
VERTEX
  8
0
  10
2.679452652186042E-002 
  20
5.478544588612477E-003 
  30
-1.243312046984448E-018 
  0
VERTEX
  8
0
  10
2.680752016788583E-002 
  20
5.414606614380304E-003 
  30
-1.254370961382758E-018 
  0
VERTEX
  8
0
  10
2.682036124325512E-002 
  20
5.350637823792174E-003 
  30
-1.265422736732048E-018 
  0
VERTEX
  8
0
  10
2.683304967488537E-002 
  20
5.286638580916090E-003 
  30
-1.276467310132929E-018 
  0
VERTEX
  8
0
  10
2.684558539056246E-002 
  20
5.222609249993372E-003 
  30
-1.287504618727001E-018 
  0
VERTEX
  8
0
  10
2.685796831894137E-002 
  20
5.158550195436576E-003 
  30
-1.298534599697212E-018 
  0
VERTEX
  8
0
  10
2.687019838954667E-002 
  20
5.094461781827430E-003 
  30
-1.309557190268212E-018 
  0
SEQEND
  0
LINE
  8
0
  10
2.675463090369885E-002 
  20
5.670169975136431E-003 
  30
-1.210093099096585E-018 
  11
2.856553148962894E-002 
  21
6.053958268357782E-003 
  31
-1.291998856274532E-018 
  0
POLYLINE
  8
0
  66
1
  10
0.000000000000000E+000 
  20
0.000000000000000E+000 
  30
0.000000000000000E+000 
  0
VERTEX
  8
0
  10
2.697728234932958E-002 
  20
1.117435622506062E-002 
  30
0.000000000000000E+000 
  0
VERTEX
  8
0
  10
2.719991338341287E-002 
  20
1.062095626273069E-002 
  30
-7.352241728755297E-020 
  0
VERTEX
  8
0
  10
2.741119359301930E-002 
  20
1.006312405796619E-002 
  30
-1.646674447736138E-019 
  0
VERTEX
  8
0
  10
2.761103480858230E-002 
  20
9.501092400311504E-003 
  30
-2.733970466308041E-019 
  0
VERTEX
  8
0
  10
2.779935363415388E-002 
  20
8.935095831789121E-003 
  30
-3.996658487945967E-019 
  0
VERTEX
  8
0
  10
2.797607148220680E-002 
  20
8.365370549022670E-003 
  30
-5.434211578982573E-019 
  0
VERTEX
  8
0
  10
2.814111460642989E-002 
  20
7.792154304669419E-003 
  30
-7.046029832624903E-019 
  0
VERTEX
  8
0
  10
2.829441413250334E-002 
  20
7.215686308203505E-003 
  30
-8.831440619301244E-019 
  0
VERTEX
  8
0
  10
2.843590608684058E-002 
  20
6.636207126091160E-003 
  30
-1.078969886735737E-018 
  0
VERTEX
  8
0
  10
2.856553142328526E-002 
  20
6.053958581399660E-003 
  30
-1.291998737398319E-018 
  0
SEQEND
  0
LINE
  8
0
  10
2.213523324114242E-002 
  20
3.756752813310980E-003 
  30
-1.147873213024344E-018 
  11
2.576228209481812E-002 
  21
3.756752813310981E-003 
  31
-1.432613315646036E-018 
  0
LINE
  8
0
  10
1.028956763769285E-002 
  20
2.484121374187340E-002 
  30
0.000000000000000E+000 
  11
1.490896530024929E-002 
  21
2.292779658004795E-002 
  31
-1.210093099096585E-018 
  0
LINE
  8
0
  10
1.490896530024929E-002 
  20
2.292779658004795E-002 
  30
-1.210093099096585E-018 
  11
1.299554813842385E-002 
  21
1.830839891749152E-002 
  31
-1.147873213024344E-018 
  0
LINE
  8
0
  10
1.299554813842385E-002 
  20
1.830839891749152E-002 
  30
-1.147873213024344E-018 
  11
8.376150475867407E-003 
  21
2.022181607931697E-002 
  31
0.000000000000000E+000 
  0
POLYLINE
  8
0
  66
1
  10
0.000000000000000E+000 
  20
0.000000000000000E+000 
  30
0.000000000000000E+000 
  0
VERTEX
  8
0
  10
1.299554813842384E-002 
  20
1.830839891749152E-002 
  30
-1.147873213024322E-018 
  0
VERTEX
  8
0
  10
1.333525440786725E-002 
  20
1.806246750080268E-002 
  30
-1.370613281876675E-018 
  0
VERTEX
  8
0
  10
1.367030778241396E-002 
  20
1.781023378493860E-002 
  30
-1.505786032735695E-018 
  0
VERTEX
  8
0
  10
1.400059135629758E-002 
  20
1.755178577849165E-002 
  30
-1.553344301551710E-018 
  0
VERTEX
  8
0
  10
1.432598988801551E-002 
  20
1.728721365832486E-002 
  30
-1.513271494443541E-018 
  0
VERTEX
  8
0
  10
1.464638984053867E-002 
  20
1.701660973810770E-002 
  30
-1.385581593488641E-018 
  0
VERTEX
  8
0
  10
1.496167942092645E-002 
  20
1.674006843610628E-002 
  30
-1.170319151844383E-018 
  0
VERTEX
  8
0
  10
1.527174861933317E-002 
  20
1.645768624223926E-002 
  30
-8.675592782028699E-019 
  0
VERTEX
  8
0
  10
1.557648924739234E-002 
  20
1.616956168441081E-002 
  30
-4.774076105838364E-019 
  0
VERTEX
  8
0
  10
1.587579497596547E-002 
  20
1.587579529413267E-002 
  30
-2.794765075141488E-025 
  0
SEQEND
  0
POLYLINE
  8
0
  66
1
  10
0.000000000000000E+000 
  20
0.000000000000000E+000 
  30
0.000000000000000E+000 
  0
VERTEX
  8
0
  10
1.591808607993832E-002 
  20
2.447967596909064E-002 
  30
-1.291998856274530E-018 
  0
VERTEX
  8
0
  10
1.648179276085088E-002 
  20
2.410374467563834E-002 
  30
-1.605237917072570E-018 
  0
VERTEX
  8
0
  10
1.703662509974525E-002 
  20
2.371483512931789E-002 
  30
-1.804313117913157E-018 
  0
VERTEX
  8
0
  10
1.758228435655054E-002 
  20
2.331315673188422E-002 
  30
-1.889117270127957E-018 
  0
VERTEX
  8
0
  10
1.811847673028643E-002 
  20
2.289892576026372E-002 
  30
-1.859604712358182E-018 
  0
VERTEX
  8
0
  10
1.864491351725537E-002 
  20
2.247236525010370E-002 
  30
-1.715791335140500E-018 
  0
VERTEX
  8
0
  10
1.916131126649023E-002 
  20
2.203370487568249E-002 
  30
-1.457754572350825E-018 
  0
VERTEX
  8
0
  10
1.966739193237360E-002 
  20
2.158318082624536E-002 
  30
-1.085633359511565E-018 
  0
VERTEX
  8
0
  10
2.016288302434678E-002 
  20
2.112103567883234E-002 
  30
-5.996280589839215E-019 
  0
VERTEX
  8
0
  10
2.064751775362768E-002 
  20
2.064751826766670E-002 
  30
-3.520863467186018E-025 
  0
SEQEND
  0
POLYLINE
  8
0
  66
1
  10
0.000000000000000E+000 
  20
0.000000000000000E+000 
  30
0.000000000000000E+000 
  0
VERTEX
  8
0
  10
1.556025897855283E-002 
  20
2.087310975762051E-002 
  30
-1.432613315646163E-018 
  0
VERTEX
  8
0
  10
1.589406290870854E-002 
  20
2.062006631141912E-002 
  30
-1.679046201063836E-018 
  0
VERTEX
  8
0
  10
1.622375253516225E-002 
  20
2.036168519821291E-002 
  30
-1.824071751969899E-018 
  0
VERTEX
  8
0
  10
1.654924251515055E-002 
  20
2.009803330199350E-002 
  30
-1.867652427355572E-018 
  0
VERTEX
  8
0
  10
1.687044859302166E-002 
  20
1.982917887113634E-002 
  30
-1.809776946018647E-018 
  0
VERTEX
  8
0
  10
1.718728762204570E-002 
  20
1.955519150073403E-002 
  30
-1.650460289484395E-018 
  0
VERTEX
  8
0
  10
1.749967758593789E-002 
  20
1.927614211458114E-002 
  30
-1.389743698127717E-018 
  0
VERTEX
  8
0
  10
1.780753762008908E-002 
  20
1.899210294681497E-002 
  30
-1.027694660497153E-018 
  0
VERTEX
  8
0
  10
1.811078803249820E-002 
  20
1.870314752321720E-002 
  30
-5.644068958452536E-019 
  0
VERTEX
  8
0
  10
1.840935032440118E-002 
  20
1.840935064218115E-002 
  30
-3.298685477092144E-025 
  0
SEQEND
  0
POLYLINE
  8
0
  66
1
  10
0.000000000000000E+000 
  20
0.000000000000000E+000 
  30
0.000000000000000E+000 
  0
VERTEX
  8
0
  10
1.539777104957615E-002 
  20
2.260242794579660E-002 
  30
-1.309557196179193E-018 
  0
VERTEX
  8
0
  10
1.556659708425881E-002 
  20
2.246146342274960E-002 
  30
-1.345497481765426E-018 
  0
VERTEX
  8
0
  10
1.570484907218485E-002 
  20
2.229040900281536E-002 
  30
-1.378016490568523E-018 
  0
VERTEX
  8
0
  10
1.580726774572802E-002 
  20
2.209577179657207E-002 
  30
-1.405877161387404E-018 
  0
VERTEX
  8
0
  10
1.586995697853116E-002 
  20
2.188495603142369E-002 
  30
-1.428019641656608E-018 
  0
VERTEX
  8
0
  10
1.589053199871834E-002 
  20
2.166598138611324E-002 
  30
-1.443601605479839E-018 
  0
VERTEX
  8
0
  10
1.586821010841157E-002 
  20
2.144717791274577E-002 
  30
-1.452030296694105E-018 
  0
VERTEX
  8
0
  10
1.580384045847521E-002 
  20
2.123686915184501E-002 
  30
-1.452985078008764E-018 
  0
VERTEX
  8
0
  10
1.569987174582205E-002 
  20
2.104305549511829E-002 
  30
-1.446429628423778E-018 
  0
VERTEX
  8
0
  10
1.556025906211336E-002 
  20
2.087310984118092E-002 
  30
-1.432613324923126E-018 
  0
SEQEND
  0
POLYLINE
  8
0
  66
1
  10
0.000000000000000E+000 
  20
0.000000000000000E+000 
  30
0.000000000000000E+000 
  0
VERTEX
  8
0
  10
1.490896530024929E-002 
  20
2.292779658004795E-002 
  30
-1.210093099096584E-018 
  0
VERTEX
  8
0
  10
1.496362059092971E-002 
  20
2.289216374986865E-002 
  30
-1.221173052841112E-018 
  0
VERTEX
  8
0
  10
1.501819071858881E-002 
  20
2.285640063264969E-002 
  30
-1.232246056477135E-018 
  0
VERTEX
  8
0
  10
1.507267537264955E-002 
  20
2.282050743193104E-002 
  30
-1.243312046984448E-018 
  0
VERTEX
  8
0
  10
1.512707424302136E-002 
  20
2.278448435199305E-002 
  30
-1.254370961382757E-018 
  0
VERTEX
  8
0
  10
1.518138702010187E-002 
  20
2.274833159785523E-002 
  30
-1.265422736732047E-018 
  0
VERTEX
  8
0
  10
1.523561339477873E-002 
  20
2.271204937527513E-002 
  30
-1.276467310132927E-018 
  0
VERTEX
  8
0
  10
1.528975305843132E-002 
  20
2.267563789074712E-002 
  30
-1.287504618727000E-018 
  0
VERTEX
  8
0
  10
1.534380570293250E-002 
  20
2.263909735150129E-002 
  30
-1.298534599697210E-018 
  0
VERTEX
  8
0
  10
1.539777102065041E-002 
  20
2.260242796550217E-002 
  30
-1.309557190268212E-018 
  0
SEQEND
  0
LINE
  8
0
  10
1.490896530024929E-002 
  20
2.292779658004795E-002 
  30
-1.210093099096585E-018 
  11
1.591808607993832E-002 
  21
2.447967596909064E-002 
  31
-1.291998856274532E-018 
  0
POLYLINE
  8
0
  66
1
  10
0.000000000000000E+000 
  20
0.000000000000000E+000 
  30
0.000000000000000E+000 
  0
VERTEX
  8
0
  10
1.117435622506061E-002 
  20
2.697728234932958E-002 
  30
-1.232595164407831E-032 
  0
VERTEX
  8
0
  10
1.172309300503535E-002 
  20
2.674339339716056E-002 
  30
-7.352241728756530E-020 
  0
VERTEX
  8
0
  10
1.226693760873180E-002 
  20
2.649834413135056E-002 
  30
-1.646674447736261E-019 
  0
VERTEX
  8
0
  10
1.280566308378610E-002 
  20
2.624223681366658E-002 
  30
-2.733970466308164E-019 
  0
VERTEX
  8
0
  10
1.333904461410335E-002 
  20
2.597517832052285E-002 
  30
-3.996658487946029E-019 
  0
VERTEX
  8
0
  10
1.386685961367584E-002 
  20
2.569728009838017E-002 
  30
-5.434211578982696E-019 
  0
VERTEX
  8
0
  10
1.438888781947067E-002 
  20
2.540865811723806E-002 
  30
-7.046029832625026E-019 
  0
VERTEX
  8
0
  10
1.490491138334796E-002 
  20
2.510943282223922E-002 
  30
-8.831440619301305E-019 
  0
VERTEX
  8
0
  10
1.541471496297123E-002 
  20
2.479972908340634E-002 
  30
-1.078969886735744E-018 
  0
VERTEX
  8
0
  10
1.591808581167222E-002 
  20
2.447967614353261E-002 
  30
-1.291998737398319E-018 
  0
SEQEND
  0
LINE
  8
0
  10
1.299554813842385E-002 
  20
1.830839891749152E-002 
  30
-1.147873213024344E-018 
  11
1.556025897855282E-002 
  21
2.087310975762050E-002 
  31
-1.432613315646036E-018 
  0
LINE
  8
0
  10
1.028956763769285E-002 
  20
2.484121374187340E-002 
  30
0.000000000000000E+000 
  11
5.670169975136422E-003 
  21
2.675463090369885E-002 
  31
0.000000000000000E+000 
  0
LINE
  8
0
  10
5.670169975136422E-003 
  20
2.675463090369885E-002 
  30
0.000000000000000E+000 
  11
3.756752813310971E-003 
  21
2.213523324114242E-002 
  31
0.000000000000000E+000 
  0
LINE
  8
0
  10
3.756752813310971E-003 
  20
2.213523324114242E-002 
  30
0.000000000000000E+000 
  11
8.376150475867407E-003 
  21
2.022181607931697E-002 
  31
0.000000000000000E+000 
  0
POLYLINE
  8
0
  66
1
  10
0.000000000000000E+000 
  20
0.000000000000000E+000 
  30
0.000000000000000E+000 
  0
VERTEX
  8
0
  10
3.756752813310970E-003 
  20
2.213523324114241E-002 
  30
0.000000000000000E+000 
  0
VERTEX
  8
0
  10
3.342644434128455E-003 
  20
2.220154207542994E-002 
  30
0.000000000000000E+000 
  0
VERTEX
  8
0
  10
2.927369749995673E-003 
  20
2.226010441769998E-002 
  30
0.000000000000000E+000 
  0
VERTEX
  8
0
  10
2.511073657245253E-003 
  20
2.231089983456483E-002 
  30
0.000000000000000E+000 
  0
VERTEX
  8
0
  10
2.093901408596519E-003 
  20
2.235391060264788E-002 
  30
0.000000000000000E+000 
  0
VERTEX
  8
0
  10
1.675998562474326E-003 
  20
2.238912171476764E-002 
  30
0.000000000000000E+000 
  0
VERTEX
  8
0
  10
1.257510932221313E-003 
  20
2.241652088517394E-002 
  30
0.000000000000000E+000 
  0
VERTEX
  8
0
  10
8.385845352211368E-004 
  20
2.243609855383470E-002 
  30
0.000000000000000E+000 
  0
VERTEX
  8
0
  10
4.193655419505804E-004 
  20
2.244784788977153E-002 
  30
0.000000000000000E+000 
  0
VERTEX
  8
0
  10
2.249781749785740E-010 
  20
2.245176479344320E-002 
  30
0.000000000000000E+000 
  0
SEQEND
  0
POLYLINE
  8
0
  66
1
  10
0.000000000000000E+000 
  20
0.000000000000000E+000 
  30
0.000000000000000E+000 
  0
VERTEX
  8
0
  10
6.053958268357768E-003 
  20
2.856553148962894E-002 
  30
0.000000000000000E+000 
  0
VERTEX
  8
0
  10
5.389533884823980E-003 
  20
2.869830873944202E-002 
  30
0.000000000000000E+000 
  0
VERTEX
  8
0
  10
4.722207598098802E-003 
  20
2.881563387122445E-002 
  30
0.000000000000000E+000 
  0
VERTEX
  8
0
  10
4.052338718713085E-003 
  20
2.891744371324718E-002 
  30
0.000000000000000E+000 
  0
VERTEX
  8
0
  10
3.380287926213585E-003 
  20
2.900368344772599E-002 
  30
0.000000000000000E+000 
  0
VERTEX
  8
0
  10
2.706417074961229E-003 
  20
2.907430664033724E-002 
  30
0.000000000000000E+000 
  0
VERTEX
  8
0
  10
2.031088999296734E-003 
  20
2.912927526521962E-002 
  30
0.000000000000000E+000 
  0
VERTEX
  8
0
  10
1.354667318178585E-003 
  20
2.916855972544854E-002 
  30
0.000000000000000E+000 
  0
VERTEX
  8
0
  10
6.775162393986150E-004 
  20
2.919213886897208E-002 
  30
0.000000000000000E+000 
  0
VERTEX
  8
0
  10
3.634804610075371E-010 
  20
2.919999999999999E-002 
  30
0.000000000000000E+000 
  0
SEQEND
  0
POLYLINE
  8
0
  66
1
  10
0.000000000000000E+000 
  20
0.000000000000000E+000 
  30
0.000000000000000E+000 
  0
VERTEX
  8
0
  10
3.756752813310973E-003 
  20
2.576228209481812E-002 
  30
0.000000000000000E+000 
  0
VERTEX
  8
0
  10
3.341789053967338E-003 
  20
2.581938838067413E-002 
  30
0.000000000000000E+000 
  0
VERTEX
  8
0
  10
2.925960246136414E-003 
  20
2.586981111394776E-002 
  30
0.000000000000000E+000 
  0
VERTEX
  8
0
  10
2.509374030388981E-003 
  20
2.591353724231633E-002 
  30
0.000000000000000E+000 
  0
VERTEX
  8
0
  10
2.092138243356834E-003 
  20
2.595055544692618E-002 
  30
0.000000000000000E+000 
  0
VERTEX
  8
0
  10
1.674360889818428E-003 
  20
2.598085614532270E-002 
  30
0.000000000000000E+000 
  0
VERTEX
  8
0
  10
1.256150114740983E-003 
  20
2.600443149393083E-002 
  30
0.000000000000000E+000 
  0
VERTEX
  8
0
  10
8.376141752863119E-004 
  20
2.602127539008542E-002 
  30
0.000000000000000E+000 
  0
VERTEX
  8
0
  10
4.188614127875814E-004 
  20
2.603138347361091E-002 
  30
0.000000000000000E+000 
  0
VERTEX
  8
0
  10
2.247043384695502E-010 
  20
2.603475312795006E-002 
  30
0.000000000000000E+000 
  0
SEQEND
  0
POLYLINE
  8
0
  66
1
  10
0.000000000000000E+000 
  20
0.000000000000000E+000 
  30
0.000000000000000E+000 
  0
VERTEX
  8
0
  10
5.094461747439913E-003 
  20
2.687019839606641E-002 
  30
0.000000000000000E+000 
  0
VERTEX
  8
0
  10
4.875406743321703E-003 
  20
2.688989945987809E-002 
  30
0.000000000000000E+000 
  0
VERTEX
  8
0
  10
4.656694084859250E-003 
  20
2.686670463776568E-002 
  30
0.000000000000000E+000 
  0
VERTEX
  8
0
  10
4.446643857870902E-003 
  20
2.680149628794232E-002 
  30
0.000000000000000E+000 
  0
VERTEX
  8
0
  10
4.253246619130983E-003 
  20
2.669675501244735E-002 
  30
0.000000000000000E+000 
  0
VERTEX
  8
0
  10
4.083859426226645E-003 
  20
2.655646529213781E-002 
  30
0.000000000000000E+000 
  0
VERTEX
  8
0
  10
3.944925966466165E-003 
  20
2.638596391236766E-002 
  30
0.000000000000000E+000 
  0
VERTEX
  8
0
  10
3.841731431462931E-003 
  20
2.619173694541918E-002 
  30
0.000000000000000E+000 
  0
VERTEX
  8
0
  10
3.778201462253213E-003 
  20
2.598117301271285E-002 
  30
0.000000000000000E+000 
  0
VERTEX
  8
0
  10
3.756752813311019E-003 
  20
2.576228221299049E-002 
  30
0.000000000000000E+000 
  0
SEQEND
  0
POLYLINE
  8
0
  66
1
  10
0.000000000000000E+000 
  20
0.000000000000000E+000 
  30
0.000000000000000E+000 
  0
VERTEX
  8
0
  10
5.670169975136424E-003 
  20
2.675463090369885E-002 
  30
0.000000000000000E+000 
  0
VERTEX
  8
0
  10
5.606326632615929E-003 
  20
2.676808181451405E-002 
  30
0.000000000000000E+000 
  0
VERTEX
  8
0
  10
5.542451382596067E-003 
  20
2.678138037913011E-002 
  30
0.000000000000000E+000 
  0
VERTEX
  8
0
  10
5.478544588612464E-003 
  20
2.679452652186042E-002 
  30
0.000000000000000E+000 
  0
VERTEX
  8
0
  10
5.414606614380293E-003 
  20
2.680752016788583E-002 
  30
0.000000000000000E+000 
  0
VERTEX
  8
0
  10
5.350637823792163E-003 
  20
2.682036124325511E-002 
  30
0.000000000000000E+000 
  0
VERTEX
  8
0
  10
5.286638580916081E-003 
  20
2.683304967488537E-002 
  30
0.000000000000000E+000 
  0
VERTEX
  8
0
  10
5.222609249993363E-003 
  20
2.684558539056246E-002 
  30
0.000000000000000E+000 
  0
VERTEX
  8
0
  10
5.158550195436563E-003 
  20
2.685796831894137E-002 
  30
0.000000000000000E+000 
  0
VERTEX
  8
0
  10
5.094461781827418E-003 
  20
2.687019838954667E-002 
  30
0.000000000000000E+000 
  0
SEQEND
  0
LINE
  8
0
  10
5.670169975136422E-003 
  20
2.675463090369885E-002 
  30
0.000000000000000E+000 
  11
6.053958268357772E-003 
  21
2.856553148962894E-002 
  31
0.000000000000000E+000 
  0
POLYLINE
  8
0
  66
1
  10
0.000000000000000E+000 
  20
0.000000000000000E+000 
  30
0.000000000000000E+000 
  0
VERTEX
  8
0
  10
1.117435622506062E-002 
  20
2.697728234932958E-002 
  30
0.000000000000000E+000 
  0
VERTEX
  8
0
  10
1.062095626273068E-002 
  20
2.719991338341286E-002 
  30
0.000000000000000E+000 
  0
VERTEX
  8
0
  10
1.006312405796618E-002 
  20
2.741119359301930E-002 
  30
0.000000000000000E+000 
  0
VERTEX
  8
0
  10
9.501092400311493E-003 
  20
2.761103480858230E-002 
  30
0.000000000000000E+000 
  0
VERTEX
  8
0
  10
8.935095831789117E-003 
  20
2.779935363415389E-002 
  30
0.000000000000000E+000 
  0
VERTEX
  8
0
  10
8.365370549022665E-003 
  20
2.797607148220679E-002 
  30
0.000000000000000E+000 
  0
VERTEX
  8
0
  10
7.792154304669414E-003 
  20
2.814111460642989E-002 
  30
0.000000000000000E+000 
  0
VERTEX
  8
0
  10
7.215686308203495E-003 
  20
2.829441413250333E-002 
  30
0.000000000000000E+000 
  0
VERTEX
  8
0
  10
6.636207126091148E-003 
  20
2.843590608684057E-002 
  30
0.000000000000000E+000 
  0
VERTEX
  8
0
  10
6.053958581399649E-003 
  20
2.856553142328525E-002 
  30
0.000000000000000E+000 
  0
SEQEND
  0
LINE
  8
0
  10
3.756752813310971E-003 
  20
2.213523324114242E-002 
  30
0.000000000000000E+000 
  11
3.756752813310971E-003 
  21
2.576228209481811E-002 
  31
0.000000000000000E+000 
  0
POLYLINE
  8
0
  66
1
  10
0.000000000000000E+000 
  20
0.000000000000000E+000 
  30
0.000000000000000E+000 
  0
VERTEX
  8
0
  10
4.155032914738761E-002 
  20
2.533543311035925E-003 
  30
-3.561615933429091E-019 
  0
VERTEX
  8
0
  10
4.156652138578149E-002 
  20
2.252330759571697E-003 
  30
-3.875769257521505E-019 
  0
VERTEX
  8
0
  10
4.158081040000125E-002 
  20
1.971015079671255E-003 
  30
-4.189745120101656E-019 
  0
VERTEX
  8
0
  10
4.159319553578963E-002 
  20
1.689609152056486E-003 
  30
-4.503529145021838E-019 
  0
VERTEX
  8
0
  10
4.160367622606311E-002 
  20
1.408125861581515E-003 
  30
-4.817106964918075E-019 
  0
VERTEX
  8
0
  10
4.161225199093783E-002 
  20
1.126578096642715E-003 
  30
-5.130464221867985E-019 
  0
VERTEX
  8
0
  10
4.161892243775153E-002 
  20
8.449787485885500E-004 
  30
-5.443586568048225E-019 
  0
VERTEX
  8
0
  10
4.162368726108161E-002 
  20
5.633407111293790E-004 
  30
-5.756459666391375E-019 
  0
VERTEX
  8
0
  10
4.162654624275908E-002 
  20
2.816768797470142E-004 
  30
-6.069069191242475E-019 
  0
VERTEX
  8
0
  10
4.162749925187847E-002 
  20
1.511043308706495E-010 
  30
-6.381400829014881E-019 
  0
SEQEND
  0
POLYLINE
  8
0
  66
1
  10
0.000000000000000E+000 
  20
0.000000000000000E+000 
  30
0.000000000000000E+000 
  0
VERTEX
  8
0
  10
4.446339330639594E-002 
  20
5.853716779997719E-003 
  30
-1.925929944387236E-034 
  0
VERTEX
  8
0
  10
4.448354098363731E-002 
  20
5.299470603621612E-003 
  30
-6.274734480675816E-020 
  0
VERTEX
  8
0
  10
4.439912950605469E-002 
  20
4.751319661473309E-003 
  30
-1.241263511905692E-019 
  0
VERTEX
  8
0
  10
4.421316924485593E-002 
  20
4.228812691012010E-003 
  30
-1.819480562416890E-019 
  0
VERTEX
  8
0
  10
4.393229211115255E-002 
  20
3.750583887312012E-003 
  30
-2.341503612851476E-019 
  0
VERTEX
  8
0
  10
4.356651504174582E-002 
  20
3.333688350730023E-003 
  30
-2.788715726201903E-019 
  0
VERTEX
  8
0
  10
4.312888276455396E-002 
  20
2.992993849914973E-003 
  30
-3.145167952060099E-019 
  0
VERTEX
  8
0
  10
4.263500258375665E-002 
  20
2.740650591749888E-003 
  30
-3.398148114920643E-019 
  0
VERTEX
  8
0
  10
4.210248777564029E-002 
  20
2.585657907849773E-003 
  30
-3.538634169201042E-019 
  0
VERTEX
  8
0
  10
4.155032944534869E-002 
  20
2.533543310898969E-003 
  30
-3.561615952953859E-019 
  0
SEQEND
  0
POLYLINE
  8
0
  66
1
  10
0.000000000000000E+000 
  20
0.000000000000000E+000 
  30
0.000000000000000E+000 
  0
VERTEX
  8
0
  10
3.277481039542957E-002 
  20
2.537576929081801E-003 
  30
-2.211878354556983E-019 
  0
VERTEX
  8
0
  10
3.279538881137593E-002 
  20
2.256095263512853E-003 
  30
-2.527002331940056E-019 
  0
VERTEX
  8
0
  10
3.281354980799315E-002 
  20
1.974447296262607E-003 
  30
-2.841940038493489E-019 
  0
VERTEX
  8
0
  10
3.282929204659476E-002 
  20
1.692653788214353E-003 
  30
-3.156668259475018E-019 
  0
VERTEX
  8
0
  10
3.284261436678616E-002 
  20
1.410735510979534E-003 
  30
-3.471163795583989E-019 
  0
VERTEX
  8
0
  10
3.285351578655017E-002 
  20
1.128713245366594E-003 
  30
-3.785403464671453E-019 
  0
VERTEX
  8
0
  10
3.286199550231948E-002 
  20
8.466077798491695E-004 
  30
-4.099364103449004E-019 
  0
VERTEX
  8
0
  10
3.286805288903583E-002 
  20
5.644399090337638E-004 
  30
-4.413022569196139E-019 
  0
VERTEX
  8
0
  10
3.287168750019608E-002 
  20
2.822304321269092E-004 
  30
-4.726355741466184E-019 
  0
VERTEX
  8
0
  10
3.287289906788516E-002 
  20
1.514019914213710E-010 
  30
-5.039340523790583E-019 
  0
SEQEND
  0
LINE
  8
0
  10
3.277481039542955E-002 
  20
2.537576929081803E-003 
  30
-2.211878354556978E-019 
  11
3.928144788597499E-002 
  21
2.534586189600558E-003 
  31
-3.212645760031189E-019 
  0
LINE
  8
0
  10
3.928144788597499E-002 
  20
2.534586189600558E-003 
  30
-3.212645760031189E-019 
  11
4.155032914738761E-002 
  21
2.533543311035922E-003 
  31
-3.561615933429094E-019 
  0
LINE
  8
0
  10
2.979519917988741E-002 
  20
3.499443645900905E-003 
  30
-6.890628333436054E-020 
  11
3.119738548383037E-002 
  21
3.684044974897837E-003 
  31
-6.994190392409602E-020 
  0
POLYLINE
  8
0
  66
1
  10
0.000000000000000E+000 
  20
0.000000000000000E+000 
  30
0.000000000000000E+000 
  0
VERTEX
  8
0
  10
2.979519917988742E-002 
  20
3.499443645900905E-003 
  30
-6.890628333436068E-020 
  0
VERTEX
  8
0
  10
2.983814336796450E-002 
  20
3.112105453354023E-003 
  30
-1.124937433686309E-019 
  0
VERTEX
  8
0
  10
2.987605236673923E-002 
  20
2.724242092739775E-003 
  30
-1.560622200738707E-019 
  0
VERTEX
  8
0
  10
2.990891977906474E-002 
  20
2.335919016034165E-003 
  30
-1.996043612658278E-019 
  0
VERTEX
  8
0
  10
2.993674005856233E-002 
  20
1.947201752790350E-003 
  30
-2.431128192043681E-019 
  0
VERTEX
  8
0
  10
2.995950851055739E-002 
  20
1.558155899080489E-003 
  30
-2.865802518334101E-019 
  0
VERTEX
  8
0
  10
2.997722129287167E-002 
  20
1.168847106426421E-003 
  30
-3.299993240198963E-019 
  0
VERTEX
  8
0
  10
2.998987541647159E-002 
  20
7.793410707209343E-004 
  30
-3.733627087915999E-019 
  0
VERTEX
  8
0
  10
2.999746874597270E-002 
  20
3.897035211416194E-004 
  30
-4.166630885735485E-019 
  0
VERTEX
  8
0
  10
2.999999999999998E-002 
  20
2.090590357078925E-010 
  30
-4.598931564228677E-019 
  0
SEQEND
  0
LINE
  8
0
  10
3.119738548383037E-002 
  20
3.684044974897837E-003 
  30
-6.994190392409602E-020 
  11
3.277481039542955E-002 
  21
2.537576929081803E-003 
  31
-2.211878354556978E-019 
  0
LINE
  8
0
  10
3.928144788597499E-002 
  20
2.534586189600558E-003 
  30
-3.212645760031189E-019 
  11
3.894020603519441E-002 
  21
5.126575381101130E-003 
  31
0.000000000000000E+000 
  0
LINE
  8
0
  10
3.254480972288076E-002 
  20
4.284605483523817E-003 
  30
0.000000000000000E+000 
  11
3.277481039542955E-002 
  21
2.537576929081803E-003 
  31
-2.211878354556978E-019 
  0
LINE
  8
0
  10
3.114262341893781E-002 
  20
4.100004154526888E-003 
  30
0.000000000000000E+000 
  11
3.119738548383037E-002 
  21
3.684044974897837E-003 
  31
-6.994190392409602E-020 
  0
LINE
  8
0
  10
3.628649534562904E-002 
  20
1.503035850314774E-002 
  30
0.000000000000000E+000 
  11
3.032693472310745E-002 
  21
1.256182766751465E-002 
  31
0.000000000000000E+000 
  0
LINE
  8
0
  10
3.115991996452791E-002 
  20
2.390984753204668E-002 
  30
0.000000000000000E+000 
  11
2.604232923958363E-002 
  21
1.998298205536612E-002 
  31
0.000000000000000E+000 
  0
LINE
  8
0
  10
2.390984753204668E-002 
  20
3.115991996452791E-002 
  30
0.000000000000000E+000 
  11
1.998298205536612E-002 
  21
2.604232923958363E-002 
  31
0.000000000000000E+000 
  0
LINE
  8
0
  10
1.503035850314774E-002 
  20
3.628649534562905E-002 
  30
0.000000000000000E+000 
  11
1.256182766751465E-002 
  21
3.032693472310746E-002 
  31
0.000000000000000E+000 
  0
LINE
  8
0
  10
5.126575381101128E-003 
  20
3.894020603519442E-002 
  30
0.000000000000000E+000 
  11
4.284605483523815E-003 
  21
3.254480972288077E-002 
  31
0.000000000000000E+000 
  0
LINE
  8
0
  10
4.143328653179671E-002 
  20
1.716222921516070E-002 
  30
0.000000000000000E+000 
  11
3.628649534562904E-002 
  21
1.503035850314774E-002 
  31
0.000000000000000E+000 
  0
LINE
  8
0
  10
3.557956975179899E-002 
  20
2.730116409123524E-002 
  30
0.000000000000000E+000 
  11
3.115991996452791E-002 
  21
2.390984753204668E-002 
  31
0.000000000000000E+000 
  0
LINE
  8
0
  10
2.730116409123524E-002 
  20
3.557956975179899E-002 
  30
0.000000000000000E+000 
  11
2.390984753204668E-002 
  21
3.115991996452791E-002 
  31
0.000000000000000E+000 
  0
LINE
  8
0
  10
1.716222921516070E-002 
  20
4.143328653179672E-002 
  30
0.000000000000000E+000 
  11
1.503035850314774E-002 
  21
3.628649534562905E-002 
  31
0.000000000000000E+000 
  0
LINE
  8
0
  10
5.853716779997721E-003 
  20
4.446339330639595E-002 
  30
0.000000000000000E+000 
  11
5.126575381101128E-003 
  21
3.894020603519442E-002 
  31
0.000000000000000E+000 
  0
POLYLINE
  8
0
  66
1
  10
0.000000000000000E+000 
  20
0.000000000000000E+000 
  30
0.000000000000000E+000 
  0
VERTEX
  8
0
  10
3.947880675378495E-002 
  20
1.320123142977382E-002 
  30
-3.561615933431014E-019 
  0
VERTEX
  8
0
  10
3.956723041907585E-002 
  20
1.293379182331706E-002 
  30
-4.427340929681886E-019 
  0
VERTEX
  8
0
  10
3.965384240258711E-002 
  20
1.266576001177696E-002 
  30
-4.977709185827854E-019 
  0
VERTEX
  8
0
  10
3.973863873857864E-002 
  20
1.239714826764124E-002 
  30
-5.212695501923250E-019 
  0
VERTEX
  8
0
  10
3.982161554444418E-002 
  20
1.212796888995123E-002 
  30
-5.132289118547264E-019 
  0
VERTEX
  8
0
  10
3.990276902088906E-002 
  20
1.185823420373878E-002 
  30
-4.736493717301907E-019 
  0
VERTEX
  8
0
  10
3.998209545210418E-002 
  20
1.158795655946183E-002 
  30
-4.025327420640437E-019 
  0
VERTEX
  8
0
  10
4.005959120593616E-002 
  20
1.131714833243902E-002 
  30
-2.998822791042011E-019 
  0
VERTEX
  8
0
  10
4.013525273405360E-002 
  20
1.104582192228300E-002 
  30
-1.657026829510882E-019 
  0
VERTEX
  8
0
  10
4.020907657210962E-002 
  20
1.077398975233267E-002 
  30
-9.734385798246241E-026 
  0
SEQEND
  0
POLYLINE
  8
0
  66
1
  10
0.000000000000000E+000 
  20
0.000000000000000E+000 
  30
0.000000000000000E+000 
  0
VERTEX
  8
0
  10
3.471686892172473E-002 
  20
2.296927744263906E-002 
  30
-3.561615933428055E-019 
  0
VERTEX
  8
0
  10
3.487149808725008E-002 
  20
2.273383634840495E-002 
  30
-4.427340929678928E-019 
  0
VERTEX
  8
0
  10
3.502453057650964E-002 
  20
2.249735433023814E-002 
  30
-4.977709185824896E-019 
  0
VERTEX
  8
0
  10
3.517595938253908E-002 
  20
2.225984221604243E-002 
  30
-5.212695501920292E-019 
  0
VERTEX
  8
0
  10
3.532577757180261E-002 
  20
2.202131088088701E-002 
  30
-5.132289118545292E-019 
  0
VERTEX
  8
0
  10
3.547397828451038E-002 
  20
2.178177124650863E-002 
  30
-4.736493717298949E-019 
  0
VERTEX
  8
0
  10
3.562055473493272E-002 
  20
2.154123428081144E-002 
  30
-4.025327420637478E-019 
  0
VERTEX
  8
0
  10
3.576550021171072E-002 
  20
2.129971099736484E-002 
  30
-2.998822791038067E-019 
  0
VERTEX
  8
0
  10
3.590880807816353E-002 
  20
2.105721245489920E-002 
  30
-1.657026829506938E-019 
  0
VERTEX
  8
0
  10
3.605047177259230E-002 
  20
2.081374975679944E-002 
  30
-9.734346355200980E-026 
  0
SEQEND
  0
POLYLINE
  8
0
  66
1
  10
0.000000000000000E+000 
  20
0.000000000000000E+000 
  30
0.000000000000000E+000 
  0
VERTEX
  8
0
  10
2.758903384498752E-002 
  20
3.117200515631417E-002 
  30
-3.561615933429042E-019 
  0
VERTEX
  8
0
  10
2.779933078865356E-002 
  20
3.098460749578996E-002 
  30
-4.427340929680900E-019 
  0
VERTEX
  8
0
  10
2.800835487241652E-002 
  20
3.079579112972950E-002 
  30
-4.977709185827854E-019 
  0
VERTEX
  8
0
  10
2.821609652560090E-002 
  20
3.060556470354889E-002 
  30
-5.212695501924237E-019 
  0
VERTEX
  8
0
  10
2.842254623625035E-002 
  20
3.041393692722724E-002 
  30
-5.132289118548250E-019 
  0
VERTEX
  8
0
  10
2.862769455156327E-002 
  20
3.022091657490786E-002 
  30
-4.736493717302893E-019 
  0
VERTEX
  8
0
  10
2.883153207832558E-002 
  20
3.002651248449656E-002 
  30
-4.025327420639451E-019 
  0
VERTEX
  8
0
  10
2.903404948334090E-002 
  20
2.983073355725696E-002 
  30
-2.998822791040039E-019 
  0
VERTEX
  8
0
  10
2.923523749385777E-002 
  20
2.963358875740293E-002 
  30
-1.657026829509896E-019 
  0
VERTEX
  8
0
  10
2.943508689799432E-002 
  20
2.943508711168812E-002 
  30
-9.734375937484926E-026 
  0
SEQEND
  0
POLYLINE
  8
0
  66
1
  10
0.000000000000000E+000 
  20
0.000000000000000E+000 
  30
0.000000000000000E+000 
  0
VERTEX
  8
0
  10
1.858105170474856E-002 
  20
3.725041223276066E-002 
  30
-3.561615933427069E-019 
  0
VERTEX
  8
0
  10
1.883268503737656E-002 
  20
3.712382884682179E-002 
  30
-4.427340929678928E-019 
  0
VERTEX
  8
0
  10
1.908345606976311E-002 
  20
3.699554565618091E-002 
  30
-4.977709185824896E-019 
  0
VERTEX
  8
0
  10
1.933335331974722E-002 
  20
3.686556853459559E-002 
  30
-5.212695501921278E-019 
  0
VERTEX
  8
0
  10
1.958236534517611E-002 
  20
3.673390343338413E-002 
  30
-5.132289118545292E-019 
  0
VERTEX
  8
0
  10
1.983048074442921E-002 
  20
3.660055638115312E-002 
  30
-4.736493717299935E-019 
  0
VERTEX
  8
0
  10
2.007768815694010E-002 
  20
3.646553348352129E-002 
  30
-4.025327420637478E-019 
  0
VERTEX
  8
0
  10
2.032397626371678E-002 
  20
3.632884092284010E-002 
  30
-2.998822791039053E-019 
  0
VERTEX
  8
0
  10
2.056933378785989E-002 
  20
3.619048495791055E-002 
  30
-1.657026829507924E-019 
  0
VERTEX
  8
0
  10
2.081374949507905E-002 
  20
3.605047192369665E-002 
  30
-9.734346355200980E-026 
  0
SEQEND
  0
POLYLINE
  8
0
  66
1
  10
0.000000000000000E+000 
  20
0.000000000000000E+000 
  30
0.000000000000000E+000 
  0
VERTEX
  8
0
  10
8.306801597470775E-003 
  20
4.079026527476134E-002 
  30
-3.561615933430028E-019 
  0
VERTEX
  8
0
  10
8.582622923285894E-003 
  20
4.073312261197061E-002 
  30
-4.427340929679914E-019 
  0
VERTEX
  8
0
  10
8.858051272857610E-003 
  20
4.067411488419347E-002 
  30
-4.977709185825882E-019 
  0
VERTEX
  8
0
  10
9.133074035029762E-003 
  20
4.061324479324213E-002 
  30
-5.212695501921278E-019 
  0
VERTEX
  8
0
  10
9.407678617216961E-003 
  20
4.055051512620157E-002 
  30
-5.132289118545292E-019 
  0
VERTEX
  8
0
  10
9.681852445981208E-003 
  20
4.048592875530203E-002 
  30
-4.736493717298949E-019 
  0
VERTEX
  8
0
  10
9.955582967607622E-003 
  20
4.041948863778740E-002 
  30
-4.025327420638465E-019 
  0
VERTEX
  8
0
  10
1.022885764867918E-002 
  20
4.035119781577990E-002 
  30
-2.998822791038067E-019 
  0
VERTEX
  8
0
  10
1.050166397665066E-002 
  20
4.028105941614075E-002 
  30
-1.657026829507924E-019 
  0
VERTEX
  8
0
  10
1.077398946042150E-002 
  20
4.020907665032696E-002 
  30
-9.734346355200980E-026 
  0
SEQEND
  0
POLYLINE
  8
0
  66
1
  10
0.000000000000000E+000 
  20
0.000000000000000E+000 
  30
0.000000000000000E+000 
  0
VERTEX
  8
0
  10
4.143328653179669E-002 
  20
1.716222921516069E-002 
  30
-1.925929944387236E-034 
  0
VERTEX
  8
0
  10
4.159619715970526E-002 
  20
1.663208312186169E-002 
  30
-6.274734480675835E-020 
  0
VERTEX
  8
0
  10
4.165653383689186E-002 
  20
1.608076267211232E-002 
  30
-1.241263511905699E-019 
  0
VERTEX
  8
0
  10
4.161214477309073E-002 
  20
1.552792963769721E-002 
  30
-1.819480562416907E-019 
  0
VERTEX
  8
0
  10
4.146461301794675E-002 
  20
1.499329973379182E-002 
  30
-2.341503612851496E-019 
  0
VERTEX
  8
0
  10
4.121920000462812E-002 
  20
1.449593949631839E-002 
  30
-2.788715726201928E-019 
  0
VERTEX
  8
0
  10
4.088465791104343E-002 
  20
1.405358631101762E-002 
  30
-3.145167952060126E-019 
  0
VERTEX
  8
0
  10
4.047291753043534E-002 
  20
1.368201584407701E-002 
  30
-3.398148114920672E-019 
  0
VERTEX
  8
0
  10
3.999866278283928E-002 
  20
1.339447943367240E-002 
  30
-3.538634169201071E-019 
  0
VERTEX
  8
0
  10
3.947880704162868E-002 
  20
1.320123150675951E-002 
  30
-3.561615952953880E-019 
  0
SEQEND
  0
POLYLINE
  8
0
  66
1
  10
0.000000000000000E+000 
  20
0.000000000000000E+000 
  30
0.000000000000000E+000 
  0
VERTEX
  8
0
  10
3.557956975179899E-002 
  20
2.730116409123525E-002 
  30
-1.925929944387236E-034 
  0
VERTEX
  8
0
  10
3.587414124030532E-002 
  20
2.683124666116383E-002 
  30
-6.274734480675835E-020 
  0
VERTEX
  8
0
  10
3.607511422742193E-002 
  20
2.631432828136371E-002 
  30
-1.241263511905694E-019 
  0
VERTEX
  8
0
  10
3.617532140236006E-002 
  20
2.576884384069040E-002 
  30
-1.819480562416890E-019 
  0
VERTEX
  8
0
  10
3.617118907108078E-002 
  20
2.521424698101307E-002 
  30
-2.341503612851476E-019 
  0
VERTEX
  8
0
  10
3.606286460514372E-002 
  20
2.467031632090536E-002 
  30
-2.788715726201905E-019 
  0
VERTEX
  8
0
  10
3.585421118598706E-002 
  20
2.415645008967394E-002 
  30
-3.145167952060101E-019 
  0
VERTEX
  8
0
  10
3.555267003207348E-002 
  20
2.369097432723058E-002 
  30
-3.398148114920649E-019 
  0
VERTEX
  8
0
  10
3.516899502230338E-002 
  20
2.329048932151417E-002 
  30
-3.538634169201054E-019 
  0
VERTEX
  8
0
  10
3.471686917983506E-002 
  20
2.296927759150098E-002 
  30
-3.561615952953877E-019 
  0
SEQEND
  0
POLYLINE
  8
0
  66
1
  10
0.000000000000000E+000 
  20
0.000000000000000E+000 
  30
0.000000000000000E+000 
  0
VERTEX
  8
0
  10
2.730116409123526E-002 
  20
3.557956975179900E-002 
  30
1.925929944387236E-034 
  0
VERTEX
  8
0
  10
2.770732188020005E-002 
  20
3.520190508123928E-002 
  30
-6.274734480675816E-020 
  0
VERTEX
  8
0
  10
2.803523520029826E-002 
  20
3.475461590472376E-002 
  30
-1.241263511905692E-019 
  0
VERTEX
  8
0
  10
2.827320966060382E-002 
  20
3.425365392096847E-002 
  30
-1.819480562416892E-019 
  0
VERTEX
  8
0
  10
2.841275836473690E-002 
  20
3.371688496499157E-002 
  30
-2.341503612851469E-019 
  0
VERTEX
  8
0
  10
2.844890457952040E-002 
  20
3.316345185784800E-002 
  30
-2.788715726201897E-019 
  0
VERTEX
  8
0
  10
2.838035922049120E-002 
  20
3.261309171514024E-002 
  30
-3.145167952060089E-019 
  0
VERTEX
  8
0
  10
2.820956682459101E-002 
  20
3.208543206116958E-002 
  30
-3.398148114920627E-019 
  0
VERTEX
  8
0
  10
2.794261837050976E-002 
  20
3.159929085144818E-002 
  30
-3.538634169201023E-019 
  0
VERTEX
  8
0
  10
2.758903405577462E-002 
  20
3.117200536690764E-002 
  30
-3.561615952953827E-019 
  0
SEQEND
  0
POLYLINE
  8
0
  66
1
  10
0.000000000000000E+000 
  20
0.000000000000000E+000 
  30
0.000000000000000E+000 
  0
VERTEX
  8
0
  10
1.716222921516066E-002 
  20
4.143328653179665E-002 
  30
1.925929944387236E-034 
  0
VERTEX
  8
0
  10
1.765229432247344E-002 
  20
4.117361184392688E-002 
  30
-6.274734480675777E-020 
  0
VERTEX
  8
0
  10
1.808480122469094E-002 
  20
4.082643388889519E-002 
  30
-1.241263511905688E-019 
  0
VERTEX
  8
0
  10
1.844432540416550E-002 
  20
4.040413409337203E-002 
  30
-1.819480562416890E-019 
  0
VERTEX
  8
0
  10
1.871804513013944E-002 
  20
3.992177295839275E-002 
  30
-2.341503612851476E-019 
  0
VERTEX
  8
0
  10
1.889619872084045E-002 
  20
3.939655295587371E-002 
  30
-2.788715726201914E-019 
  0
VERTEX
  8
0
  10
1.897243267488002E-002 
  20
3.884720503590201E-002 
  30
-3.145167952060126E-019 
  0
VERTEX
  8
0
  10
1.894402825652608E-002 
  20
3.829332062382333E-002 
  30
-3.398148114920689E-019 
  0
VERTEX
  8
0
  10
1.881199845412616E-002 
  20
3.775465293015312E-002 
  30
-3.538634169201117E-019 
  0
VERTEX
  8
0
  10
1.858105185384775E-002 
  20
3.725041249073398E-002 
  30
-3.561615952953958E-019 
  0
SEQEND
  0
POLYLINE
  8
0
  66
1
  10
0.000000000000000E+000 
  20
0.000000000000000E+000 
  30
0.000000000000000E+000 
  0
VERTEX
  8
0
  10
5.853716779997718E-003 
  20
4.446339330639592E-002 
  30
5.777789833161708E-034 
  0
VERTEX
  8
0
  10
6.394292078466014E-003 
  20
4.433940500206172E-002 
  30
-6.274734480675777E-020 
  0
VERTEX
  8
0
  10
6.901917932168112E-003 
  20
4.411599787241056E-002 
  30
-1.241263511905684E-019 
  0
VERTEX
  8
0
  10
7.358490852122264E-003 
  20
4.380113929830101E-002 
  30
-1.819480562416884E-019 
  0
VERTEX
  8
0
  10
7.747728052955177E-003 
  20
4.340605809852872E-002 
  30
-2.341503612851474E-019 
  0
VERTEX
  8
0
  10
8.055748146780117E-003 
  20
4.294484407583878E-002 
  30
-2.788715726201907E-019 
  0
VERTEX
  8
0
  10
8.271566195903196E-003 
  20
4.243394553150883E-002 
  30
-3.145167952060105E-019 
  0
VERTEX
  8
0
  10
8.387485469265772E-003 
  20
4.189158266866806E-002 
  30
-3.398148114920660E-019 
  0
VERTEX
  8
0
  10
8.399371931391130E-003 
  20
4.133709780418220E-002 
  30
-3.538634169201069E-019 
  0
VERTEX
  8
0
  10
8.306801674721091E-003 
  20
4.079026556253418E-002 
  30
-3.561615952953898E-019 
  0
SEQEND
  0
POLYLINE
  8
0
  66
1
  10
0.000000000000000E+000 
  20
0.000000000000000E+000 
  30
0.000000000000000E+000 
  0
VERTEX
  8
0
  10
3.100126257501369E-002 
  20
1.093385622195667E-002 
  30
-2.211878354556697E-019 
  0
VERTEX
  8
0
  10
3.109399261433682E-002 
  20
1.066729189752171E-002 
  30
-2.962618619597915E-019 
  0
VERTEX
  8
0
  10
3.118443064793933E-002 
  20
1.039994126383546E-002 
  30
-3.464254774082646E-019 
  0
VERTEX
  8
0
  10
3.127257000943737E-002 
  20
1.013182402789371E-002 
  30
-3.716749841319034E-019 
  0
VERTEX
  8
0
  10
3.135840420188719E-002 
  20
9.862959953200157E-003 
  30
-3.720085209348374E-019 
  0
VERTEX
  8
0
  10
3.144192689826406E-002 
  20
9.593368858309642E-003 
  30
-3.474260632313290E-019 
  0
VERTEX
  8
0
  10
3.152313194192865E-002 
  20
9.323070615367217E-003 
  30
-2.979294230476965E-019 
  0
VERTEX
  8
0
  10
3.160201334708086E-002 
  20
9.052085148643370E-003 
  30
-2.235222488888485E-019 
  0
VERTEX
  8
0
  10
3.167856529920098E-002 
  20
8.780432433065319E-003 
  30
-1.242100254690363E-019 
  0
VERTEX
  8
0
  10
3.175278215547840E-002 
  20
8.508132492744673E-003 
  30
-7.330800575747683E-026 
  0
SEQEND
  0
POLYLINE
  8
0
  66
1
  10
0.000000000000000E+000 
  20
0.000000000000000E+000 
  30
0.000000000000000E+000 
  0
VERTEX
  8
0
  10
2.711502994211940E-002 
  20
1.858501128235692E-002 
  30
-2.211878354557683E-019 
  0
VERTEX
  8
0
  10
2.727359220588307E-002 
  20
1.835153021724784E-002 
  30
-2.962618619599394E-019 
  0
VERTEX
  8
0
  10
2.743014407393676E-002 
  20
1.811669642099350E-002 
  30
-3.464254774083139E-019 
  0
VERTEX
  8
0
  10
2.758467400650231E-002 
  20
1.788052720370297E-002 
  30
-3.716749841319527E-019 
  0
VERTEX
  8
0
  10
2.773717061284281E-002 
  20
1.764303997392217E-002 
  30
-3.720085209349360E-019 
  0
VERTEX
  8
0
  10
2.788762265210223E-002 
  20
1.740425223735053E-002 
  30
-3.474260632314276E-019 
  0
VERTEX
  8
0
  10
2.803601903413404E-002 
  20
1.716418159555066E-002 
  30
-2.979294230476965E-019 
  0
VERTEX
  8
0
  10
2.818234882031865E-002 
  20
1.692284574465093E-002 
  30
-2.235222488888485E-019 
  0
VERTEX
  8
0
  10
2.832660122436973E-002 
  20
1.668026247404100E-002 
  30
-1.242100254689870E-019 
  0
VERTEX
  8
0
  10
2.846876561312936E-002 
  20
1.643644966506056E-002 
  30
-7.330805506128341E-026 
  0
SEQEND
  0
POLYLINE
  8
0
  66
1
  10
0.000000000000000E+000 
  20
0.000000000000000E+000 
  30
0.000000000000000E+000 
  0
VERTEX
  8
0
  10
2.138095282837532E-002 
  20
2.496962853704787E-002 
  30
-2.211878354558669E-019 
  0
VERTEX
  8
0
  10
2.159454156034055E-002 
  20
2.478514208000613E-002 
  30
-2.962618619599394E-019 
  0
VERTEX
  8
0
  10
2.180653851175176E-002 
  20
2.459882865631722E-002 
  30
-3.464254774083139E-019 
  0
VERTEX
  8
0
  10
2.201692805585327E-002 
  20
2.441070199954821E-002 
  30
-3.716749841319527E-019 
  0
VERTEX
  8
0
  10
2.222569468437491E-002 
  20
2.422077597692351E-002 
  30
-3.720085209349360E-019 
  0
VERTEX
  8
0
  10
2.243282300867511E-002 
  20
2.402906458830270E-002 
  30
-3.474260632313783E-019 
  0
VERTEX
  8
0
  10
2.263829776087528E-002 
  20
2.383558196514856E-002 
  30
-2.979294230477951E-019 
  0
VERTEX
  8
0
  10
2.284210379498523E-002 
  20
2.364034236948542E-002 
  30
-2.235222488888485E-019 
  0
VERTEX
  8
0
  10
2.304422608801957E-002 
  20
2.344336019284787E-002 
  30
-1.242100254690856E-019 
  0
VERTEX
  8
0
  10
2.324464974110516E-002 
  20
2.324464995521991E-002 
  30
-7.330805506128341E-026 
  0
SEQEND
  0
POLYLINE
  8
0
  66
1
  10
0.000000000000000E+000 
  20
0.000000000000000E+000 
  30
0.000000000000000E+000 
  0
VERTEX
  8
0
  10
1.418979911307264E-002 
  20
2.965260687120120E-002 
  30
-2.211878354557190E-019 
  0
VERTEX
  8
0
  10
1.444385859412808E-002 
  20
2.952968746939591E-002 
  30
-2.962618619597915E-019 
  0
VERTEX
  8
0
  10
1.469685338699966E-002 
  20
2.940459137019935E-002 
  30
-3.464254774081660E-019 
  0
VERTEX
  8
0
  10
1.494876484289178E-002 
  20
2.927732779471666E-002 
  30
-3.716749841319034E-019 
  0
VERTEX
  8
0
  10
1.519957439286397E-002 
  20
2.914790612382234E-002 
  30
-3.720085209348374E-019 
  0
VERTEX
  8
0
  10
1.544926354919963E-002 
  20
2.901633589746883E-002 
  30
-3.474260632313783E-019 
  0
VERTEX
  8
0
  10
1.569781390676881E-002 
  20
2.888262681398321E-002 
  30
-2.979294230476472E-019 
  0
VERTEX
  8
0
  10
1.594520714438489E-002 
  20
2.874678872935241E-002 
  30
-2.235222488887499E-019 
  0
VERTEX
  8
0
  10
1.619142502615508E-002 
  20
2.860883165649665E-002 
  30
-1.242100254689870E-019 
  0
VERTEX
  8
0
  10
1.643644940282461E-002 
  20
2.846876576453134E-002 
  30
-7.330790714986368E-026 
  0
SEQEND
  0
POLYLINE
  8
0
  66
1
  10
0.000000000000000E+000 
  20
0.000000000000000E+000 
  30
0.000000000000000E+000 
  0
VERTEX
  8
0
  10
6.031634037965829E-003 
  20
3.231480905033198E-002 
  30
-2.211878354557683E-019 
  0
VERTEX
  8
0
  10
6.308850534330696E-003 
  20
3.226183345786226E-002 
  30
-2.962618619599394E-019 
  0
VERTEX
  8
0
  10
6.585601991622107E-003 
  20
3.220647977558722E-002 
  30
-3.464254774083139E-019 
  0
VERTEX
  8
0
  10
6.861868009889155E-003 
  20
3.214875208374697E-002 
  30
-3.716749841319527E-019 
  0
VERTEX
  8
0
  10
7.137628224963674E-003 
  20
3.208865463757506E-002 
  30
-3.720085209348867E-019 
  0
VERTEX
  8
0
  10
7.412862309961350E-003 
  20
3.202619186698474E-002 
  30
-3.474260632313783E-019 
  0
VERTEX
  8
0
  10
7.687549976780084E-003 
  20
3.196136837624249E-002 
  30
-2.979294230476472E-019 
  0
VERTEX
  8
0
  10
7.961670977595425E-003 
  20
3.189418894362858E-002 
  30
-2.235222488887499E-019 
  0
VERTEX
  8
0
  10
8.235205106353102E-003 
  20
3.182465852108488E-002 
  30
-1.242100254689870E-019 
  0
VERTEX
  8
0
  10
8.508132200258480E-003 
  20
3.175278223384983E-002 
  30
-7.330785784605710E-026 
  0
SEQEND
  0
LINE
  8
0
  10
3.100126257501369E-002 
  20
1.093385622195667E-002 
  30
-2.211878354556978E-019 
  11
3.728696582976892E-002 
  21
1.261500909158326E-002 
  31
-3.212645760031189E-019 
  0
LINE
  8
0
  10
2.711502994211940E-002 
  20
1.858501128235692E-002 
  30
-2.211878354556978E-019 
  11
3.275143867188860E-002 
  21
2.183573997126279E-002 
  31
-3.212645760031189E-019 
  0
LINE
  8
0
  10
2.138095282837531E-002 
  20
2.496962853704787E-002 
  30
-2.211878354556978E-019 
  11
2.598395509283057E-002 
  21
2.956840125716722E-002 
  31
-3.212645760031189E-019 
  0
LINE
  8
0
  10
1.418979911307263E-002 
  20
2.965260687120120E-002 
  30
-2.211878354556978E-019 
  11
1.744570791471221E-002 
  21
3.528602486148916E-002 
  31
-3.212645760031189E-019 
  0
LINE
  8
0
  10
6.031634037965829E-003 
  20
3.231480905033198E-002 
  30
-2.211878354556978E-019 
  11
7.718564572601696E-003 
  21
3.859896418441383E-002 
  31
-3.212645760031189E-019 
  0
LINE
  8
0
  10
3.728696582976892E-002 
  20
1.261500909158326E-002 
  30
-3.212645760031189E-019 
  11
3.947880675378494E-002 
  21
1.320123142977381E-002 
  31
-3.561615933429094E-019 
  0
LINE
  8
0
  10
3.275143867188860E-002 
  20
2.183573997126279E-002 
  30
-3.212645760031189E-019 
  11
3.471686892172473E-002 
  21
2.296927744263906E-002 
  31
-3.561615933429094E-019 
  0
LINE
  8
0
  10
2.598395509283057E-002 
  20
2.956840125716722E-002 
  30
-3.212645760031189E-019 
  11
2.758903384498752E-002 
  21
3.117200515631417E-002 
  31
-3.561615933429094E-019 
  0
LINE
  8
0
  10
1.744570791471221E-002 
  20
3.528602486148916E-002 
  30
-3.212645760031189E-019 
  11
1.858105170474855E-002 
  21
3.725041223276066E-002 
  31
-3.561615933429094E-019 
  0
LINE
  8
0
  10
7.718564572601696E-003 
  20
3.859896418441383E-002 
  30
-3.212645760031189E-019 
  11
8.306801597470773E-003 
  21
4.079026527476134E-002 
  31
-3.561615933429094E-019 
  0
LINE
  8
0
  10
2.787422972445796E-002 
  20
1.109176799559673E-002 
  30
-6.890628333436054E-020 
  11
2.918085934900964E-002 
  21
1.163299170708450E-002 
  31
-6.994190392409602E-020 
  0
LINE
  8
0
  10
2.405367757764932E-002 
  20
1.792820668640593E-002 
  30
-6.890628333436054E-020 
  11
2.517570587320407E-002 
  21
1.878916927886112E-002 
  31
-6.994190392409602E-020 
  0
LINE
  8
0
  10
1.859390705450555E-002 
  20
2.354286771929896E-002 
  30
-6.890628333436054E-020 
  11
1.945486964696073E-002 
  21
2.466489601485371E-002 
  31
-6.994190392409602E-020 
  0
LINE
  8
0
  10
1.186699249348149E-002 
  20
2.755312122355023E-002 
  30
-6.890628333436054E-020 
  11
1.240821620496926E-002 
  21
2.885975084810191E-002 
  31
-6.994190392409602E-020 
  0
LINE
  8
0
  10
4.331362005159009E-003 
  20
2.968567505010228E-002 
  30
-6.890628333436054E-020 
  11
4.515963334155935E-003 
  21
3.108786135404525E-002 
  31
-6.994190392409602E-020 
  0
POLYLINE
  8
0
  66
1
  10
0.000000000000000E+000 
  20
0.000000000000000E+000 
  30
0.000000000000000E+000 
  0
VERTEX
  8
0
  10
2.787422972445798E-002 
  20
1.109176799559673E-002 
  30
-6.890628333439617E-020 
  0
VERTEX
  8
0
  10
2.801596112593737E-002 
  20
1.072874280565839E-002 
  30
-1.522621988660060E-019 
  0
VERTEX
  8
0
  10
2.815296483152707E-002 
  20
1.036390713943348E-002 
  30
-2.128754995614105E-019 
  0
VERTEX
  8
0
  10
2.828521772183979E-002 
  20
9.997322562972581E-003 
  30
-2.507359569208382E-019 
  0
VERTEX
  8
0
  10
2.841269747918872E-002 
  20
9.629050937455027E-003 
  30
-2.658371819888082E-019 
  0
VERTEX
  8
0
  10
2.853538259135366E-002 
  20
9.259154408749819E-003 
  30
-2.581766264322324E-019 
  0
VERTEX
  8
0
  10
2.865325235521119E-002 
  20
8.887695396928526E-003 
  30
-2.277555829705664E-019 
  0
VERTEX
  8
0
  10
2.876628688022837E-002 
  20
8.514736585731868E-003 
  30
-1.745791851574921E-019 
  0
VERTEX
  8
0
  10
2.887446709181923E-002 
  20
8.140340911991844E-003 
  30
-9.865640651487185E-020 
  0
VERTEX
  8
0
  10
2.897777473456358E-002 
  20
7.764571555011143E-003 
  30
-5.901820954175410E-026 
  0
SEQEND
  0
POLYLINE
  8
0
  66
1
  10
0.000000000000000E+000 
  20
0.000000000000000E+000 
  30
0.000000000000000E+000 
  0
VERTEX
  8
0
  10
2.405367757764933E-002 
  20
1.792820668640593E-002 
  30
-6.890628333439617E-020 
  0
VERTEX
  8
0
  10
2.428453743174242E-002 
  20
1.761423406584292E-002 
  30
-1.522621988659813E-019 
  0
VERTEX
  8
0
  10
2.451129926802049E-002 
  20
1.729728904174114E-002 
  30
-2.128754995613859E-019 
  0
VERTEX
  8
0
  10
2.473392482040385E-002 
  20
1.697742509860110E-002 
  30
-2.507359569208382E-019 
  0
VERTEX
  8
0
  10
2.495237652081104E-002 
  20
1.665469621349119E-002 
  30
-2.658371819887835E-019 
  0
VERTEX
  8
0
  10
2.516661750549855E-002 
  20
1.632915684693898E-002 
  30
-2.581766264322077E-019 
  0
VERTEX
  8
0
  10
2.537661162128145E-002 
  20
1.600086193374105E-002 
  30
-2.277555829705417E-019 
  0
VERTEX
  8
0
  10
2.558232343163435E-002 
  20
1.566986687369269E-002 
  30
-1.745791851574674E-019 
  0
VERTEX
  8
0
  10
2.578371822267128E-002 
  20
1.533622752223925E-002 
  30
-9.865640651484720E-020 
  0
VERTEX
  8
0
  10
2.598076200900363E-002 
  20
1.500000018105043E-002 
  30
-5.901816023794752E-026 
  0
SEQEND
  0
POLYLINE
  8
0
  66
1
  10
0.000000000000000E+000 
  20
0.000000000000000E+000 
  30
0.000000000000000E+000 
  0
VERTEX
  8
0
  10
1.859390705450554E-002 
  20
2.354286771929896E-002 
  30
-6.890628333434687E-020 
  0
VERTEX
  8
0
  10
1.889816264366984E-002 
  20
2.329934438333838E-002 
  30
-1.522621988659567E-019 
  0
VERTEX
  8
0
  10
1.919922916623559E-002 
  20
2.305188928097584E-002 
  30
-2.128754995613859E-019 
  0
VERTEX
  8
0
  10
1.949705581720076E-002 
  20
2.280054417028150E-002 
  30
-2.507359569207889E-019 
  0
VERTEX
  8
0
  10
1.979159233829199E-002 
  20
2.254535146576477E-002 
  30
-2.658371819887835E-019 
  0
VERTEX
  8
0
  10
2.008278902644557E-002 
  20
2.228635423121685E-002 
  30
-2.581766264321831E-019 
  0
VERTEX
  8
0
  10
2.037059674219492E-002 
  20
2.202359617244371E-002 
  30
-2.277555829705171E-019 
  0
VERTEX
  8
0
  10
2.065496691796284E-002 
  20
2.175712162989075E-002 
  30
-1.745791851574674E-019 
  0
VERTEX
  8
0
  10
2.093585156625730E-002 
  20
2.148697557116034E-002 
  30
-9.865640651484720E-020 
  0
VERTEX
  8
0
  10
2.121320328776935E-002 
  20
2.121320358342348E-002 
  30
-5.901816023794752E-026 
  0
SEQEND
  0
POLYLINE
  8
0
  66
1
  10
0.000000000000000E+000 
  20
0.000000000000000E+000 
  30
0.000000000000000E+000 
  0
VERTEX
  8
0
  10
1.186699249348149E-002 
  20
2.755312122355023E-002 
  30
-6.890628333437152E-020 
  0
VERTEX
  8
0
  10
1.222390930212158E-002 
  20
2.739664288509644E-002 
  30
-1.522621988659813E-019 
  0
VERTEX
  8
0
  10
1.257876332499808E-002 
  20
2.723554136076026E-002 
  30
-2.128754995613612E-019 
  0
VERTEX
  8
0
  10
1.293149468046363E-002 
  20
2.706984383643801E-002 
  30
-2.507359569207889E-019 
  0
VERTEX
  8
0
  10
1.328204384507113E-002 
  20
2.689957827360140E-002 
  30
-2.658371819887835E-019 
  0
VERTEX
  8
0
  10
1.363035166361841E-002 
  20
2.672477340457903E-002 
  30
-2.581766264321831E-019 
  0
VERTEX
  8
0
  10
1.397635935913061E-002 
  20
2.654545872770787E-002 
  30
-2.277555829705171E-019 
  0
VERTEX
  8
0
  10
1.432000854277890E-002 
  20
2.636166450235529E-002 
  30
-1.745791851574674E-019 
  0
VERTEX
  8
0
  10
1.466124122373346E-002 
  20
2.617342174381291E-002 
  30
-9.865640651484720E-020 
  0
VERTEX
  8
0
  10
1.499999981894955E-002 
  20
2.598076221806267E-002 
  30
-5.901820954175410E-026 
  0
SEQEND
  0
POLYLINE
  8
0
  66
1
  10
0.000000000000000E+000 
  20
0.000000000000000E+000 
  30
0.000000000000000E+000 
  0
VERTEX
  8
0
  10
4.331362005159008E-003 
  20
2.968567505010228E-002 
  30
-6.890628333437152E-020 
  0
VERTEX
  8
0
  10
4.716616742598981E-003 
  20
2.962690544932823E-002 
  30
-1.522621988659567E-019 
  0
VERTEX
  8
0
  10
5.101075550551224E-003 
  20
2.956313630566906E-002 
  30
-2.128754995613612E-019 
  0
VERTEX
  8
0
  10
5.484673551558281E-003 
  20
2.949437838017335E-002 
  30
-2.507359569208382E-019 
  0
VERTEX
  8
0
  10
5.867346013423938E-003 
  20
2.942064327574702E-002 
  30
-2.658371819888082E-019 
  0
VERTEX
  8
0
  10
6.249028360136793E-003 
  20
2.934194343519539E-002 
  30
-2.581766264321831E-019 
  0
VERTEX
  8
0
  10
6.629656182767466E-003 
  20
2.925829213912345E-002 
  30
-2.277555829705171E-019 
  0
VERTEX
  8
0
  10
7.009165250337608E-003 
  20
2.916970350369471E-002 
  30
-1.745791851574674E-019 
  0
VERTEX
  8
0
  10
7.387491520658887E-003 
  20
2.907619247824916E-002 
  30
-9.865640651487185E-020 
  0
VERTEX
  8
0
  10
7.764571151140094E-003 
  20
2.897777484278050E-002 
  30
-5.901818488985081E-026 
  0
SEQEND
  0
LINE
  8
0
  10
2.918085934900964E-002 
  20
1.163299170708450E-002 
  30
-6.994190392409602E-020 
  11
3.100126257501369E-002 
  21
1.093385622195667E-002 
  31
-2.211878354556978E-019 
  0
LINE
  8
0
  10
2.517570587320407E-002 
  20
1.878916927886112E-002 
  30
-6.994190392409602E-020 
  11
2.711502994211940E-002 
  21
1.858501128235692E-002 
  31
-2.211878354556978E-019 
  0
LINE
  8
0
  10
1.945486964696073E-002 
  20
2.466489601485371E-002 
  30
-6.994190392409602E-020 
  11
2.138095282837531E-002 
  21
2.496962853704787E-002 
  31
-2.211878354556978E-019 
  0
LINE
  8
0
  10
1.240821620496926E-002 
  20
2.885975084810191E-002 
  30
-6.994190392409602E-020 
  11
1.418979911307263E-002 
  21
2.965260687120120E-002 
  31
-2.211878354556978E-019 
  0
LINE
  8
0
  10
4.515963334155935E-003 
  20
3.108786135404525E-002 
  30
-6.994190392409602E-020 
  11
6.031634037965829E-003 
  21
3.231480905033198E-002 
  31
-2.211878354556978E-019 
  0
LINE
  8
0
  10
3.728696582976892E-002 
  20
1.261500909158326E-002 
  30
-3.212645760031189E-019 
  11
3.628649534562904E-002 
  21
1.503035850314774E-002 
  31
0.000000000000000E+000 
  0
LINE
  8
0
  10
3.275143867188860E-002 
  20
2.183573997126279E-002 
  30
-3.212645760031189E-019 
  11
3.115991996452791E-002 
  21
2.390984753204668E-002 
  31
0.000000000000000E+000 
  0
LINE
  8
0
  10
2.598395509283057E-002 
  20
2.956840125716722E-002 
  30
-3.212645760031189E-019 
  11
2.390984753204668E-002 
  21
3.115991996452791E-002 
  31
0.000000000000000E+000 
  0
LINE
  8
0
  10
1.744570791471221E-002 
  20
3.528602486148916E-002 
  30
-3.212645760031189E-019 
  11
1.503035850314774E-002 
  21
3.628649534562905E-002 
  31
0.000000000000000E+000 
  0
LINE
  8
0
  10
7.718564572601696E-003 
  20
3.859896418441383E-002 
  30
-3.212645760031189E-019 
  11
5.126575381101128E-003 
  21
3.894020603519442E-002 
  31
0.000000000000000E+000 
  0
LINE
  8
0
  10
3.032693472310745E-002 
  20
1.256182766751465E-002 
  30
0.000000000000000E+000 
  11
3.100126257501369E-002 
  21
1.093385622195667E-002 
  31
-2.211878354556978E-019 
  0
LINE
  8
0
  10
2.604232923958363E-002 
  20
1.998298205536612E-002 
  30
0.000000000000000E+000 
  11
2.711502994211940E-002 
  21
1.858501128235692E-002 
  31
-2.211878354556978E-019 
  0
LINE
  8
0
  10
1.998298205536612E-002 
  20
2.604232923958363E-002 
  30
0.000000000000000E+000 
  11
2.138095282837531E-002 
  21
2.496962853704787E-002 
  31
-2.211878354556978E-019 
  0
LINE
  8
0
  10
1.256182766751465E-002 
  20
3.032693472310746E-002 
  30
0.000000000000000E+000 
  11
1.418979911307263E-002 
  21
2.965260687120120E-002 
  31
-2.211878354556978E-019 
  0
LINE
  8
0
  10
4.284605483523815E-003 
  20
3.254480972288077E-002 
  30
0.000000000000000E+000 
  11
6.031634037965829E-003 
  21
3.231480905033198E-002 
  31
-2.211878354556978E-019 
  0
LINE
  8
0
  10
2.902030509855578E-002 
  20
1.202060395602688E-002 
  30
0.000000000000000E+000 
  11
2.918085934900964E-002 
  21
1.163299170708450E-002 
  31
-6.994190392409602E-020 
  0
LINE
  8
0
  10
2.492030094402889E-002 
  20
1.912201946291093E-002 
  30
0.000000000000000E+000 
  11
2.517570587320407E-002 
  21
1.878916927886112E-002 
  31
-6.994190392409602E-020 
  0
LINE
  8
0
  10
1.912201946291093E-002 
  20
2.492030094402889E-002 
  30
0.000000000000000E+000 
  11
1.945486964696073E-002 
  21
2.466489601485371E-002 
  31
-6.994190392409602E-020 
  0
LINE
  8
0
  10
1.202060395602688E-002 
  20
2.902030509855578E-002 
  30
0.000000000000000E+000 
  11
1.240821620496926E-002 
  21
2.885975084810191E-002 
  31
-6.994190392409602E-020 
  0
LINE
  8
0
  10
4.100004154526889E-003 
  20
3.114262341893782E-002 
  30
0.000000000000000E+000 
  11
4.515963334155935E-003 
  21
3.108786135404525E-002 
  31
-6.994190392409602E-020 
  0
POLYLINE
  8
0
  66
1
  10
0.000000000000000E+000 
  20
0.000000000000000E+000 
  30
0.000000000000000E+000 
  0
VERTEX
  8
0
  10
3.725041223276065E-002 
  20
1.858105170474857E-002 
  30
0.000000000000000E+000 
  0
VERTEX
  8
0
  10
3.712382884682176E-002 
  20
1.883268503737657E-002 
  30
0.000000000000000E+000 
  0
VERTEX
  8
0
  10
3.699554565618089E-002 
  20
1.908345606976312E-002 
  30
0.000000000000000E+000 
  0
VERTEX
  8
0
  10
3.686556853459556E-002 
  20
1.933335331974723E-002 
  30
0.000000000000000E+000 
  0
VERTEX
  8
0
  10
3.673390343338411E-002 
  20
1.958236534517612E-002 
  30
0.000000000000000E+000 
  0
VERTEX
  8
0
  10
3.660055638115309E-002 
  20
1.983048074442921E-002 
  30
0.000000000000000E+000 
  0
VERTEX
  8
0
  10
3.646553348352127E-002 
  20
2.007768815694010E-002 
  30
0.000000000000000E+000 
  0
VERTEX
  8
0
  10
3.632884092284008E-002 
  20
2.032397626371679E-002 
  30
0.000000000000000E+000 
  0
VERTEX
  8
0
  10
3.619048495791054E-002 
  20
2.056933378785989E-002 
  30
0.000000000000000E+000 
  0
VERTEX
  8
0
  10
3.605047192369664E-002 
  20
2.081374949507905E-002 
  30
0.000000000000000E+000 
  0
SEQEND
  0
POLYLINE
  8
0
  66
1
  10
0.000000000000000E+000 
  20
0.000000000000000E+000 
  30
0.000000000000000E+000 
  0
VERTEX
  8
0
  10
3.117200515631417E-002 
  20
2.758903384498754E-002 
  30
0.000000000000000E+000 
  0
VERTEX
  8
0
  10
3.098460749578996E-002 
  20
2.779933078865357E-002 
  30
0.000000000000000E+000 
  0
VERTEX
  8
0
  10
3.079579112972949E-002 
  20
2.800835487241654E-002 
  30
0.000000000000000E+000 
  0
VERTEX
  8
0
  10
3.060556470354888E-002 
  20
2.821609652560091E-002 
  30
0.000000000000000E+000 
  0
VERTEX
  8
0
  10
3.041393692722724E-002 
  20
2.842254623625036E-002 
  30
0.000000000000000E+000 
  0
VERTEX
  8
0
  10
3.022091657490785E-002 
  20
2.862769455156327E-002 
  30
0.000000000000000E+000 
  0
VERTEX
  8
0
  10
3.002651248449655E-002 
  20
2.883153207832559E-002 
  30
0.000000000000000E+000 
  0
VERTEX
  8
0
  10
2.983073355725696E-002 
  20
2.903404948334091E-002 
  30
0.000000000000000E+000 
  0
VERTEX
  8
0
  10
2.963358875740292E-002 
  20
2.923523749385777E-002 
  30
0.000000000000000E+000 
  0
VERTEX
  8
0
  10
2.943508711168810E-002 
  20
2.943508689799432E-002 
  30
0.000000000000000E+000 
  0
SEQEND
  0
POLYLINE
  8
0
  66
1
  10
0.000000000000000E+000 
  20
0.000000000000000E+000 
  30
0.000000000000000E+000 
  0
VERTEX
  8
0
  10
2.296927744263904E-002 
  20
3.471686892172474E-002 
  30
0.000000000000000E+000 
  0
VERTEX
  8
0
  10
2.273383634840493E-002 
  20
3.487149808725010E-002 
  30
0.000000000000000E+000 
  0
VERTEX
  8
0
  10
2.249735433023812E-002 
  20
3.502453057650966E-002 
  30
0.000000000000000E+000 
  0
VERTEX
  8
0
  10
2.225984221604240E-002 
  20
3.517595938253910E-002 
  30
0.000000000000000E+000 
  0
VERTEX
  8
0
  10
2.202131088088699E-002 
  20
3.532577757180261E-002 
  30
0.000000000000000E+000 
  0
VERTEX
  8
0
  10
2.178177124650861E-002 
  20
3.547397828451039E-002 
  30
0.000000000000000E+000 
  0
VERTEX
  8
0
  10
2.154123428081143E-002 
  20
3.562055473493273E-002 
  30
0.000000000000000E+000 
  0
VERTEX
  8
0
  10
2.129971099736483E-002 
  20
3.576550021171072E-002 
  30
0.000000000000000E+000 
  0
VERTEX
  8
0
  10
2.105721245489918E-002 
  20
3.590880807816354E-002 
  30
0.000000000000000E+000 
  0
VERTEX
  8
0
  10
2.081374975679942E-002 
  20
3.605047177259232E-002 
  30
0.000000000000000E+000 
  0
SEQEND
  0
POLYLINE
  8
0
  66
1
  10
0.000000000000000E+000 
  20
0.000000000000000E+000 
  30
0.000000000000000E+000 
  0
VERTEX
  8
0
  10
1.320123142977381E-002 
  20
3.947880675378496E-002 
  30
0.000000000000000E+000 
  0
VERTEX
  8
0
  10
1.293379182331705E-002 
  20
3.956723041907586E-002 
  30
0.000000000000000E+000 
  0
VERTEX
  8
0
  10
1.266576001177695E-002 
  20
3.965384240258713E-002 
  30
0.000000000000000E+000 
  0
VERTEX
  8
0
  10
1.239714826764123E-002 
  20
3.973863873857868E-002 
  30
0.000000000000000E+000 
  0
VERTEX
  8
0
  10
1.212796888995124E-002 
  20
3.982161554444421E-002 
  30
0.000000000000000E+000 
  0
VERTEX
  8
0
  10
1.185823420373878E-002 
  20
3.990276902088909E-002 
  30
0.000000000000000E+000 
  0
VERTEX
  8
0
  10
1.158795655946183E-002 
  20
3.998209545210420E-002 
  30
0.000000000000000E+000 
  0
VERTEX
  8
0
  10
1.131714833243901E-002 
  20
4.005959120593616E-002 
  30
0.000000000000000E+000 
  0
VERTEX
  8
0
  10
1.104582192228299E-002 
  20
4.013525273405361E-002 
  30
0.000000000000000E+000 
  0
VERTEX
  8
0
  10
1.077398975233266E-002 
  20
4.020907657210963E-002 
  30
0.000000000000000E+000 
  0
SEQEND
  0
POLYLINE
  8
0
  66
1
  10
0.000000000000000E+000 
  20
0.000000000000000E+000 
  30
0.000000000000000E+000 
  0
VERTEX
  8
0
  10
2.533543311035915E-003 
  20
4.155032914738762E-002 
  30
0.000000000000000E+000 
  0
VERTEX
  8
0
  10
2.252330759571694E-003 
  20
4.156652138578151E-002 
  30
0.000000000000000E+000 
  0
VERTEX
  8
0
  10
1.971015079671241E-003 
  20
4.158081040000126E-002 
  30
0.000000000000000E+000 
  0
VERTEX
  8
0
  10
1.689609152056480E-003 
  20
4.159319553578964E-002 
  30
0.000000000000000E+000 
  0
VERTEX
  8
0
  10
1.408125861581508E-003 
  20
4.160367622606312E-002 
  30
0.000000000000000E+000 
  0
VERTEX
  8
0
  10
1.126578096642706E-003 
  20
4.161225199093783E-002 
  30
0.000000000000000E+000 
  0
VERTEX
  8
0
  10
8.449787485885485E-004 
  20
4.161892243775154E-002 
  30
0.000000000000000E+000 
  0
VERTEX
  8
0
  10
5.633407111293666E-004 
  20
4.162368726108162E-002 
  30
0.000000000000000E+000 
  0
VERTEX
  8
0
  10
2.816768797470092E-004 
  20
4.162654624275908E-002 
  30
0.000000000000000E+000 
  0
VERTEX
  8
0
  10
1.511043245822768E-010 
  20
4.162749925187849E-002 
  30
0.000000000000000E+000 
  0
SEQEND
  0
POLYLINE
  8
0
  66
1
  10
0.000000000000000E+000 
  20
0.000000000000000E+000 
  30
0.000000000000000E+000 
  0
VERTEX
  8
0
  10
4.143328653179673E-002 
  20
1.716222921516071E-002 
  30
0.000000000000000E+000 
  0
VERTEX
  8
0
  10
4.117361184392696E-002 
  20
1.765229432247350E-002 
  30
0.000000000000000E+000 
  0
VERTEX
  8
0
  10
4.082643388889527E-002 
  20
1.808480122469099E-002 
  30
0.000000000000000E+000 
  0
VERTEX
  8
0
  10
4.040413409337210E-002 
  20
1.844432540416554E-002 
  30
0.000000000000000E+000 
  0
VERTEX
  8
0
  10
3.992177295839281E-002 
  20
1.871804513013949E-002 
  30
0.000000000000000E+000 
  0
VERTEX
  8
0
  10
3.939655295587377E-002 
  20
1.889619872084047E-002 
  30
0.000000000000000E+000 
  0
VERTEX
  8
0
  10
3.884720503590205E-002 
  20
1.897243267488002E-002 
  30
0.000000000000000E+000 
  0
VERTEX
  8
0
  10
3.829332062382338E-002 
  20
1.894402825652606E-002 
  30
0.000000000000000E+000 
  0
VERTEX
  8
0
  10
3.775465293015316E-002 
  20
1.881199845412611E-002 
  30
0.000000000000000E+000 
  0
VERTEX
  8
0
  10
3.725041249073403E-002 
  20
1.858105185384768E-002 
  30
0.000000000000000E+000 
  0
SEQEND
  0
POLYLINE
  8
0
  66
1
  10
0.000000000000000E+000 
  20
0.000000000000000E+000 
  30
0.000000000000000E+000 
  0
VERTEX
  8
0
  10
3.557956975179898E-002 
  20
2.730116409123524E-002 
  30
0.000000000000000E+000 
  0
VERTEX
  8
0
  10
3.520190508123925E-002 
  20
2.770732188020003E-002 
  30
0.000000000000000E+000 
  0
VERTEX
  8
0
  10
3.475461590472374E-002 
  20
2.803523520029824E-002 
  30
0.000000000000000E+000 
  0
VERTEX
  8
0
  10
3.425365392096845E-002 
  20
2.827320966060381E-002 
  30
0.000000000000000E+000 
  0
VERTEX
  8
0
  10
3.371688496499155E-002 
  20
2.841275836473691E-002 
  30
0.000000000000000E+000 
  0
VERTEX
  8
0
  10
3.316345185784798E-002 
  20
2.844890457952041E-002 
  30
0.000000000000000E+000 
  0
VERTEX
  8
0
  10
3.261309171514021E-002 
  20
2.838035922049122E-002 
  30
0.000000000000000E+000 
  0
VERTEX
  8
0
  10
3.208543206116955E-002 
  20
2.820956682459105E-002 
  30
0.000000000000000E+000 
  0
VERTEX
  8
0
  10
3.159929085144815E-002 
  20
2.794261837050979E-002 
  30
0.000000000000000E+000 
  0
VERTEX
  8
0
  10
3.117200536690759E-002 
  20
2.758903405577467E-002 
  30
0.000000000000000E+000 
  0
SEQEND
  0
POLYLINE
  8
0
  66
1
  10
0.000000000000000E+000 
  20
0.000000000000000E+000 
  30
0.000000000000000E+000 
  0
VERTEX
  8
0
  10
2.730116409123524E-002 
  20
3.557956975179898E-002 
  30
0.000000000000000E+000 
  0
VERTEX
  8
0
  10
2.683124666116383E-002 
  20
3.587414124030532E-002 
  30
0.000000000000000E+000 
  0
VERTEX
  8
0
  10
2.631432828136371E-002 
  20
3.607511422742195E-002 
  30
0.000000000000000E+000 
  0
VERTEX
  8
0
  10
2.576884384069040E-002 
  20
3.617532140236010E-002 
  30
0.000000000000000E+000 
  0
VERTEX
  8
0
  10
2.521424698101307E-002 
  20
3.617118907108081E-002 
  30
0.000000000000000E+000 
  0
VERTEX
  8
0
  10
2.467031632090535E-002 
  20
3.606286460514376E-002 
  30
0.000000000000000E+000 
  0
VERTEX
  8
0
  10
2.415645008967392E-002 
  20
3.585421118598710E-002 
  30
0.000000000000000E+000 
  0
VERTEX
  8
0
  10
2.369097432723056E-002 
  20
3.555267003207351E-002 
  30
0.000000000000000E+000 
  0
VERTEX
  8
0
  10
2.329048932151415E-002 
  20
3.516899502230340E-002 
  30
0.000000000000000E+000 
  0
VERTEX
  8
0
  10
2.296927759150098E-002 
  20
3.471686917983507E-002 
  30
0.000000000000000E+000 
  0
SEQEND
  0
POLYLINE
  8
0
  66
1
  10
0.000000000000000E+000 
  20
0.000000000000000E+000 
  30
0.000000000000000E+000 
  0
VERTEX
  8
0
  10
1.716222921516067E-002 
  20
4.143328653179665E-002 
  30
0.000000000000000E+000 
  0
VERTEX
  8
0
  10
1.663208312186167E-002 
  20
4.159619715970523E-002 
  30
0.000000000000000E+000 
  0
VERTEX
  8
0
  10
1.608076267211231E-002 
  20
4.165653383689184E-002 
  30
0.000000000000000E+000 
  0
VERTEX
  8
0
  10
1.552792963769719E-002 
  20
4.161214477309071E-002 
  30
0.000000000000000E+000 
  0
VERTEX
  8
0
  10
1.499329973379180E-002 
  20
4.146461301794673E-002 
  30
0.000000000000000E+000 
  0
VERTEX
  8
0
  10
1.449593949631836E-002 
  20
4.121920000462812E-002 
  30
0.000000000000000E+000 
  0
VERTEX
  8
0
  10
1.405358631101759E-002 
  20
4.088465791104343E-002 
  30
0.000000000000000E+000 
  0
VERTEX
  8
0
  10
1.368201584407697E-002 
  20
4.047291753043535E-002 
  30
0.000000000000000E+000 
  0
VERTEX
  8
0
  10
1.339447943367235E-002 
  20
3.999866278283930E-002 
  30
0.000000000000000E+000 
  0
VERTEX
  8
0
  10
1.320123150675944E-002 
  20
3.947880704162872E-002 
  30
0.000000000000000E+000 
  0
SEQEND
  0
POLYLINE
  8
0
  66
1
  10
0.000000000000000E+000 
  20
0.000000000000000E+000 
  30
0.000000000000000E+000 
  0
VERTEX
  8
0
  10
5.853716779997723E-003 
  20
4.446339330639597E-002 
  30
0.000000000000000E+000 
  0
VERTEX
  8
0
  10
5.299470603621612E-003 
  20
4.448354098363735E-002 
  30
0.000000000000000E+000 
  0
VERTEX
  8
0
  10
4.751319661473298E-003 
  20
4.439912950605473E-002 
  30
0.000000000000000E+000 
  0
VERTEX
  8
0
  10
4.228812691011991E-003 
  20
4.421316924485597E-002 
  30
0.000000000000000E+000 
  0
VERTEX
  8
0
  10
3.750583887311993E-003 
  20
4.393229211115258E-002 
  30
0.000000000000000E+000 
  0
VERTEX
  8
0
  10
3.333688350730004E-003 
  20
4.356651504174586E-002 
  30
0.000000000000000E+000 
  0
VERTEX
  8
0
  10
2.992993849914955E-003 
  20
4.312888276455398E-002 
  30
0.000000000000000E+000 
  0
VERTEX
  8
0
  10
2.740650591749881E-003 
  20
4.263500258375665E-002 
  30
0.000000000000000E+000 
  0
VERTEX
  8
0
  10
2.585657907849778E-003 
  20
4.210248777564030E-002 
  30
0.000000000000000E+000 
  0
VERTEX
  8
0
  10
2.533543310898997E-003 
  20
4.155032944534869E-002 
  30
0.000000000000000E+000 
  0
SEQEND
  0
POLYLINE
  8
0
  66
1
  10
0.000000000000000E+000 
  20
0.000000000000000E+000 
  30
0.000000000000000E+000 
  0
VERTEX
  8
0
  10
2.965260687120121E-002 
  20
1.418979911307264E-002 
  30
0.000000000000000E+000 
  0
VERTEX
  8
0
  10
2.952968746939592E-002 
  20
1.444385859412808E-002 
  30
0.000000000000000E+000 
  0
VERTEX
  8
0
  10
2.940459137019936E-002 
  20
1.469685338699966E-002 
  30
0.000000000000000E+000 
  0
VERTEX
  8
0
  10
2.927732779471666E-002 
  20
1.494876484289178E-002 
  30
0.000000000000000E+000 
  0
VERTEX
  8
0
  10
2.914790612382235E-002 
  20
1.519957439286398E-002 
  30
0.000000000000000E+000 
  0
VERTEX
  8
0
  10
2.901633589746883E-002 
  20
1.544926354919963E-002 
  30
0.000000000000000E+000 
  0
VERTEX
  8
0
  10
2.888262681398321E-002 
  20
1.569781390676881E-002 
  30
0.000000000000000E+000 
  0
VERTEX
  8
0
  10
2.874678872935241E-002 
  20
1.594520714438489E-002 
  30
0.000000000000000E+000 
  0
VERTEX
  8
0
  10
2.860883165649665E-002 
  20
1.619142502615508E-002 
  30
0.000000000000000E+000 
  0
VERTEX
  8
0
  10
2.846876576453135E-002 
  20
1.643644940282461E-002 
  30
0.000000000000000E+000 
  0
SEQEND
  0
POLYLINE
  8
0
  66
1
  10
0.000000000000000E+000 
  20
0.000000000000000E+000 
  30
0.000000000000000E+000 
  0
VERTEX
  8
0
  10
2.496962853704787E-002 
  20
2.138095282837531E-002 
  30
0.000000000000000E+000 
  0
VERTEX
  8
0
  10
2.478514208000612E-002 
  20
2.159454156034055E-002 
  30
0.000000000000000E+000 
  0
VERTEX
  8
0
  10
2.459882865631721E-002 
  20
2.180653851175176E-002 
  30
0.000000000000000E+000 
  0
VERTEX
  8
0
  10
2.441070199954820E-002 
  20
2.201692805585327E-002 
  30
0.000000000000000E+000 
  0
VERTEX
  8
0
  10
2.422077597692350E-002 
  20
2.222569468437491E-002 
  30
0.000000000000000E+000 
  0
VERTEX
  8
0
  10
2.402906458830269E-002 
  20
2.243282300867511E-002 
  30
0.000000000000000E+000 
  0
VERTEX
  8
0
  10
2.383558196514855E-002 
  20
2.263829776087529E-002 
  30
0.000000000000000E+000 
  0
VERTEX
  8
0
  10
2.364034236948541E-002 
  20
2.284210379498523E-002 
  30
0.000000000000000E+000 
  0
VERTEX
  8
0
  10
2.344336019284786E-002 
  20
2.304422608801958E-002 
  30
0.000000000000000E+000 
  0
VERTEX
  8
0
  10
2.324464995521990E-002 
  20
2.324464974110517E-002 
  30
0.000000000000000E+000 
  0
SEQEND
  0
POLYLINE
  8
0
  66
1
  10
0.000000000000000E+000 
  20
0.000000000000000E+000 
  30
0.000000000000000E+000 
  0
VERTEX
  8
0
  10
1.858501128235692E-002 
  20
2.711502994211941E-002 
  30
0.000000000000000E+000 
  0
VERTEX
  8
0
  10
1.835153021724784E-002 
  20
2.727359220588308E-002 
  30
0.000000000000000E+000 
  0
VERTEX
  8
0
  10
1.811669642099349E-002 
  20
2.743014407393677E-002 
  30
0.000000000000000E+000 
  0
VERTEX
  8
0
  10
1.788052720370298E-002 
  20
2.758467400650232E-002 
  30
0.000000000000000E+000 
  0
VERTEX
  8
0
  10
1.764303997392217E-002 
  20
2.773717061284282E-002 
  30
0.000000000000000E+000 
  0
VERTEX
  8
0
  10
1.740425223735053E-002 
  20
2.788762265210225E-002 
  30
0.000000000000000E+000 
  0
VERTEX
  8
0
  10
1.716418159555066E-002 
  20
2.803601903413406E-002 
  30
0.000000000000000E+000 
  0
VERTEX
  8
0
  10
1.692284574465093E-002 
  20
2.818234882031866E-002 
  30
0.000000000000000E+000 
  0
VERTEX
  8
0
  10
1.668026247404100E-002 
  20
2.832660122436976E-002 
  30
0.000000000000000E+000 
  0
VERTEX
  8
0
  10
1.643644966506055E-002 
  20
2.846876561312936E-002 
  30
0.000000000000000E+000 
  0
SEQEND
  0
POLYLINE
  8
0
  66
1
  10
0.000000000000000E+000 
  20
0.000000000000000E+000 
  30
0.000000000000000E+000 
  0
VERTEX
  8
0
  10
1.093385622195667E-002 
  20
3.100126257501372E-002 
  30
0.000000000000000E+000 
  0
VERTEX
  8
0
  10
1.066729189752171E-002 
  20
3.109399261433684E-002 
  30
0.000000000000000E+000 
  0
VERTEX
  8
0
  10
1.039994126383545E-002 
  20
3.118443064793934E-002 
  30
0.000000000000000E+000 
  0
VERTEX
  8
0
  10
1.013182402789370E-002 
  20
3.127257000943737E-002 
  30
0.000000000000000E+000 
  0
VERTEX
  8
0
  10
9.862959953200153E-003 
  20
3.135840420188719E-002 
  30
0.000000000000000E+000 
  0
VERTEX
  8
0
  10
9.593368858309638E-003 
  20
3.144192689826407E-002 
  30
0.000000000000000E+000 
  0
VERTEX
  8
0
  10
9.323070615367211E-003 
  20
3.152313194192866E-002 
  30
0.000000000000000E+000 
  0
VERTEX
  8
0
  10
9.052085148643363E-003 
  20
3.160201334708086E-002 
  30
0.000000000000000E+000 
  0
VERTEX
  8
0
  10
8.780432433065316E-003 
  20
3.167856529920099E-002 
  30
0.000000000000000E+000 
  0
VERTEX
  8
0
  10
8.508132492744670E-003 
  20
3.175278215547841E-002 
  30
0.000000000000000E+000 
  0
SEQEND
  0
POLYLINE
  8
0
  66
1
  10
0.000000000000000E+000 
  20
0.000000000000000E+000 
  30
0.000000000000000E+000 
  0
VERTEX
  8
0
  10
2.537576929081797E-003 
  20
3.277481039542957E-002 
  30
0.000000000000000E+000 
  0
VERTEX
  8
0
  10
2.256095263512849E-003 
  20
3.279538881137593E-002 
  30
0.000000000000000E+000 
  0
VERTEX
  8
0
  10
1.974447296262595E-003 
  20
3.281354980799315E-002 
  30
0.000000000000000E+000 
  0
VERTEX
  8
0
  10
1.692653788214349E-003 
  20
3.282929204659476E-002 
  30
0.000000000000000E+000 
  0
VERTEX
  8
0
  10
1.410735510979529E-003 
  20
3.284261436678616E-002 
  30
0.000000000000000E+000 
  0
VERTEX
  8
0
  10
1.128713245366582E-003 
  20
3.285351578655017E-002 
  30
0.000000000000000E+000 
  0
VERTEX
  8
0
  10
8.466077798491573E-004 
  20
3.286199550231947E-002 
  30
0.000000000000000E+000 
  0
VERTEX
  8
0
  10
5.644399090337592E-004 
  20
3.286805288903583E-002 
  30
0.000000000000000E+000 
  0
VERTEX
  8
0
  10
2.822304321268973E-004 
  20
3.287168750019608E-002 
  30
0.000000000000000E+000 
  0
VERTEX
  8
0
  10
1.514019794951471E-010 
  20
3.287289906788516E-002 
  30
0.000000000000000E+000 
  0
SEQEND
  0
LINE
  8
0
  10
2.965260687120120E-002 
  20
1.418979911307263E-002 
  30
0.000000000000000E+000 
  11
3.528602486148916E-002 
  21
1.744570791471221E-002 
  31
0.000000000000000E+000 
  0
LINE
  8
0
  10
2.496962853704787E-002 
  20
2.138095282837531E-002 
  30
0.000000000000000E+000 
  11
2.956840125716722E-002 
  21
2.598395509283057E-002 
  31
0.000000000000000E+000 
  0
LINE
  8
0
  10
1.858501128235692E-002 
  20
2.711502994211940E-002 
  30
0.000000000000000E+000 
  11
2.183573997126278E-002 
  21
3.275143867188860E-002 
  31
0.000000000000000E+000 
  0
LINE
  8
0
  10
1.093385622195666E-002 
  20
3.100126257501370E-002 
  30
0.000000000000000E+000 
  11
1.261500909158326E-002 
  21
3.728696582976893E-002 
  31
0.000000000000000E+000 
  0
LINE
  8
0
  10
2.537576929081799E-003 
  20
3.277481039542957E-002 
  30
0.000000000000000E+000 
  11
2.534586189600552E-003 
  21
3.928144788597500E-002 
  31
0.000000000000000E+000 
  0
LINE
  8
0
  10
3.528602486148916E-002 
  20
1.744570791471221E-002 
  30
0.000000000000000E+000 
  11
3.725041223276065E-002 
  21
1.858105170474856E-002 
  31
0.000000000000000E+000 
  0
LINE
  8
0
  10
2.956840125716722E-002 
  20
2.598395509283057E-002 
  30
0.000000000000000E+000 
  11
3.117200515631416E-002 
  21
2.758903384498753E-002 
  31
0.000000000000000E+000 
  0
LINE
  8
0
  10
2.183573997126278E-002 
  20
3.275143867188860E-002 
  30
0.000000000000000E+000 
  11
2.296927744263905E-002 
  21
3.471686892172474E-002 
  31
0.000000000000000E+000 
  0
LINE
  8
0
  10
1.261500909158326E-002 
  20
3.728696582976893E-002 
  30
0.000000000000000E+000 
  11
1.320123142977380E-002 
  21
3.947880675378495E-002 
  31
0.000000000000000E+000 
  0
LINE
  8
0
  10
2.534586189600552E-003 
  20
3.928144788597500E-002 
  30
0.000000000000000E+000 
  11
2.533543311035910E-003 
  21
4.155032914738761E-002 
  31
0.000000000000000E+000 
  0
LINE
  8
0
  10
2.755312122355023E-002 
  20
1.186699249348149E-002 
  30
0.000000000000000E+000 
  11
2.885975084810190E-002 
  21
1.240821620496926E-002 
  31
0.000000000000000E+000 
  0
LINE
  8
0
  10
2.354286771929896E-002 
  20
1.859390705450555E-002 
  30
0.000000000000000E+000 
  11
2.466489601485370E-002 
  21
1.945486964696074E-002 
  31
0.000000000000000E+000 
  0
LINE
  8
0
  10
1.792820668640593E-002 
  20
2.405367757764932E-002 
  30
0.000000000000000E+000 
  11
1.878916927886112E-002 
  21
2.517570587320407E-002 
  31
0.000000000000000E+000 
  0
LINE
  8
0
  10
1.109176799559673E-002 
  20
2.787422972445797E-002 
  30
0.000000000000000E+000 
  11
1.163299170708450E-002 
  21
2.918085934900965E-002 
  31
0.000000000000000E+000 
  0
LINE
  8
0
  10
3.499443645900904E-003 
  20
2.979519917988742E-002 
  30
0.000000000000000E+000 
  11
3.684044974897830E-003 
  21
3.119738548383039E-002 
  31
0.000000000000000E+000 
  0
POLYLINE
  8
0
  66
1
  10
0.000000000000000E+000 
  20
0.000000000000000E+000 
  30
0.000000000000000E+000 
  0
VERTEX
  8
0
  10
2.755312122355023E-002 
  20
1.186699249348149E-002 
  30
0.000000000000000E+000 
  0
VERTEX
  8
0
  10
2.739664288509644E-002 
  20
1.222390930212158E-002 
  30
0.000000000000000E+000 
  0
VERTEX
  8
0
  10
2.723554136076026E-002 
  20
1.257876332499809E-002 
  30
0.000000000000000E+000 
  0
VERTEX
  8
0
  10
2.706984383643801E-002 
  20
1.293149468046364E-002 
  30
0.000000000000000E+000 
  0
VERTEX
  8
0
  10
2.689957827360139E-002 
  20
1.328204384507114E-002 
  30
0.000000000000000E+000 
  0
VERTEX
  8
0
  10
2.672477340457903E-002 
  20
1.363035166361841E-002 
  30
0.000000000000000E+000 
  0
VERTEX
  8
0
  10
2.654545872770786E-002 
  20
1.397635935913062E-002 
  30
0.000000000000000E+000 
  0
VERTEX
  8
0
  10
2.636166450235528E-002 
  20
1.432000854277891E-002 
  30
0.000000000000000E+000 
  0
VERTEX
  8
0
  10
2.617342174381290E-002 
  20
1.466124122373346E-002 
  30
0.000000000000000E+000 
  0
VERTEX
  8
0
  10
2.598076221806266E-002 
  20
1.499999981894956E-002 
  30
0.000000000000000E+000 
  0
SEQEND
  0
POLYLINE
  8
0
  66
1
  10
0.000000000000000E+000 
  20
0.000000000000000E+000 
  30
0.000000000000000E+000 
  0
VERTEX
  8
0
  10
2.354286771929896E-002 
  20
1.859390705450554E-002 
  30
0.000000000000000E+000 
  0
VERTEX
  8
0
  10
2.329934438333837E-002 
  20
1.889816264366984E-002 
  30
0.000000000000000E+000 
  0
VERTEX
  8
0
  10
2.305188928097583E-002 
  20
1.919922916623559E-002 
  30
0.000000000000000E+000 
  0
VERTEX
  8
0
  10
2.280054417028149E-002 
  20
1.949705581720077E-002 
  30
0.000000000000000E+000 
  0
VERTEX
  8
0
  10
2.254535146576476E-002 
  20
1.979159233829199E-002 
  30
0.000000000000000E+000 
  0
VERTEX
  8
0
  10
2.228635423121684E-002 
  20
2.008278902644558E-002 
  30
0.000000000000000E+000 
  0
VERTEX
  8
0
  10
2.202359617244370E-002 
  20
2.037059674219492E-002 
  30
0.000000000000000E+000 
  0
VERTEX
  8
0
  10
2.175712162989075E-002 
  20
2.065496691796284E-002 
  30
0.000000000000000E+000 
  0
VERTEX
  8
0
  10
2.148697557116033E-002 
  20
2.093585156625730E-002 
  30
0.000000000000000E+000 
  0
VERTEX
  8
0
  10
2.121320358342348E-002 
  20
2.121320328776936E-002 
  30
0.000000000000000E+000 
  0
SEQEND
  0
POLYLINE
  8
0
  66
1
  10
0.000000000000000E+000 
  20
0.000000000000000E+000 
  30
0.000000000000000E+000 
  0
VERTEX
  8
0
  10
1.792820668640593E-002 
  20
2.405367757764933E-002 
  30
0.000000000000000E+000 
  0
VERTEX
  8
0
  10
1.761423406584293E-002 
  20
2.428453743174242E-002 
  30
0.000000000000000E+000 
  0
VERTEX
  8
0
  10
1.729728904174114E-002 
  20
2.451129926802049E-002 
  30
0.000000000000000E+000 
  0
VERTEX
  8
0
  10
1.697742509860110E-002 
  20
2.473392482040384E-002 
  30
0.000000000000000E+000 
  0
VERTEX
  8
0
  10
1.665469621349119E-002 
  20
2.495237652081105E-002 
  30
0.000000000000000E+000 
  0
VERTEX
  8
0
  10
1.632915684693898E-002 
  20
2.516661750549855E-002 
  30
0.000000000000000E+000 
  0
VERTEX
  8
0
  10
1.600086193374104E-002 
  20
2.537661162128145E-002 
  30
0.000000000000000E+000 
  0
VERTEX
  8
0
  10
1.566986687369269E-002 
  20
2.558232343163436E-002 
  30
0.000000000000000E+000 
  0
VERTEX
  8
0
  10
1.533622752223924E-002 
  20
2.578371822267128E-002 
  30
0.000000000000000E+000 
  0
VERTEX
  8
0
  10
1.500000018105043E-002 
  20
2.598076200900364E-002 
  30
0.000000000000000E+000 
  0
SEQEND
  0
POLYLINE
  8
0
  66
1
  10
0.000000000000000E+000 
  20
0.000000000000000E+000 
  30
0.000000000000000E+000 
  0
VERTEX
  8
0
  10
1.109176799559673E-002 
  20
2.787422972445797E-002 
  30
0.000000000000000E+000 
  0
VERTEX
  8
0
  10
1.072874280565838E-002 
  20
2.801596112593736E-002 
  30
0.000000000000000E+000 
  0
VERTEX
  8
0
  10
1.036390713943347E-002 
  20
2.815296483152707E-002 
  30
0.000000000000000E+000 
  0
VERTEX
  8
0
  10
9.997322562972576E-003 
  20
2.828521772183979E-002 
  30
0.000000000000000E+000 
  0
VERTEX
  8
0
  10
9.629050937455018E-003 
  20
2.841269747918872E-002 
  30
0.000000000000000E+000 
  0
VERTEX
  8
0
  10
9.259154408749814E-003 
  20
2.853538259135365E-002 
  30
0.000000000000000E+000 
  0
VERTEX
  8
0
  10
8.887695396928522E-003 
  20
2.865325235521118E-002 
  30
0.000000000000000E+000 
  0
VERTEX
  8
0
  10
8.514736585731862E-003 
  20
2.876628688022838E-002 
  30
0.000000000000000E+000 
  0
VERTEX
  8
0
  10
8.140340911991846E-003 
  20
2.887446709181923E-002 
  30
0.000000000000000E+000 
  0
VERTEX
  8
0
  10
7.764571555011140E-003 
  20
2.897777473456358E-002 
  30
0.000000000000000E+000 
  0
SEQEND
  0
POLYLINE
  8
0
  66
1
  10
0.000000000000000E+000 
  20
0.000000000000000E+000 
  30
0.000000000000000E+000 
  0
VERTEX
  8
0
  10
3.499443645900903E-003 
  20
2.979519917988742E-002 
  30
0.000000000000000E+000 
  0
VERTEX
  8
0
  10
3.112105453354022E-003 
  20
2.983814336796450E-002 
  30
0.000000000000000E+000 
  0
VERTEX
  8
0
  10
2.724242092739769E-003 
  20
2.987605236673923E-002 
  30
0.000000000000000E+000 
  0
VERTEX
  8
0
  10
2.335919016034160E-003 
  20
2.990891977906474E-002 
  30
0.000000000000000E+000 
  0
VERTEX
  8
0
  10
1.947201752790345E-003 
  20
2.993674005856233E-002 
  30
0.000000000000000E+000 
  0
VERTEX
  8
0
  10
1.558155899080485E-003 
  20
2.995950851055739E-002 
  30
0.000000000000000E+000 
  0
VERTEX
  8
0
  10
1.168847106426412E-003 
  20
2.997722129287167E-002 
  30
0.000000000000000E+000 
  0
VERTEX
  8
0
  10
7.793410707209263E-004 
  20
2.998987541647160E-002 
  30
0.000000000000000E+000 
  0
VERTEX
  8
0
  10
3.897035211416120E-004 
  20
2.999746874597271E-002 
  30
0.000000000000000E+000 
  0
VERTEX
  8
0
  10
2.090590296363604E-010 
  20
2.999999999999999E-002 
  30
0.000000000000000E+000 
  0
SEQEND
  0
LINE
  8
0
  10
2.885975084810190E-002 
  20
1.240821620496926E-002 
  30
0.000000000000000E+000 
  11
2.965260687120120E-002 
  21
1.418979911307263E-002 
  31
0.000000000000000E+000 
  0
LINE
  8
0
  10
2.466489601485370E-002 
  20
1.945486964696074E-002 
  30
0.000000000000000E+000 
  11
2.496962853704787E-002 
  21
2.138095282837531E-002 
  31
0.000000000000000E+000 
  0
LINE
  8
0
  10
1.878916927886112E-002 
  20
2.517570587320407E-002 
  30
0.000000000000000E+000 
  11
1.858501128235692E-002 
  21
2.711502994211940E-002 
  31
0.000000000000000E+000 
  0
LINE
  8
0
  10
1.163299170708450E-002 
  20
2.918085934900965E-002 
  30
0.000000000000000E+000 
  11
1.093385622195666E-002 
  21
3.100126257501370E-002 
  31
0.000000000000000E+000 
  0
LINE
  8
0
  10
3.684044974897830E-003 
  20
3.119738548383039E-002 
  30
0.000000000000000E+000 
  11
2.537576929081799E-003 
  21
3.277481039542957E-002 
  31
0.000000000000000E+000 
  0
LINE
  8
0
  10
3.528602486148916E-002 
  20
1.744570791471221E-002 
  30
0.000000000000000E+000 
  11
3.628649534562904E-002 
  21
1.503035850314774E-002 
  31
0.000000000000000E+000 
  0
LINE
  8
0
  10
2.956840125716722E-002 
  20
2.598395509283057E-002 
  30
0.000000000000000E+000 
  11
3.115991996452791E-002 
  21
2.390984753204668E-002 
  31
0.000000000000000E+000 
  0
LINE
  8
0
  10
2.183573997126278E-002 
  20
3.275143867188860E-002 
  30
0.000000000000000E+000 
  11
2.390984753204668E-002 
  21
3.115991996452791E-002 
  31
0.000000000000000E+000 
  0
LINE
  8
0
  10
1.261500909158326E-002 
  20
3.728696582976893E-002 
  30
0.000000000000000E+000 
  11
1.503035850314774E-002 
  21
3.628649534562905E-002 
  31
0.000000000000000E+000 
  0
LINE
  8
0
  10
2.534586189600552E-003 
  20
3.928144788597500E-002 
  30
0.000000000000000E+000 
  11
5.126575381101128E-003 
  21
3.894020603519442E-002 
  31
0.000000000000000E+000 
  0
LINE
  8
0
  10
3.032693472310745E-002 
  20
1.256182766751465E-002 
  30
0.000000000000000E+000 
  11
2.965260687120120E-002 
  21
1.418979911307263E-002 
  31
0.000000000000000E+000 
  0
LINE
  8
0
  10
2.604232923958363E-002 
  20
1.998298205536612E-002 
  30
0.000000000000000E+000 
  11
2.496962853704787E-002 
  21
2.138095282837531E-002 
  31
0.000000000000000E+000 
  0
LINE
  8
0
  10
1.998298205536612E-002 
  20
2.604232923958363E-002 
  30
0.000000000000000E+000 
  11
1.858501128235692E-002 
  21
2.711502994211940E-002 
  31
0.000000000000000E+000 
  0
LINE
  8
0
  10
1.256182766751465E-002 
  20
3.032693472310746E-002 
  30
0.000000000000000E+000 
  11
1.093385622195666E-002 
  21
3.100126257501370E-002 
  31
0.000000000000000E+000 
  0
LINE
  8
0
  10
4.284605483523815E-003 
  20
3.254480972288077E-002 
  30
0.000000000000000E+000 
  11
2.537576929081799E-003 
  21
3.277481039542957E-002 
  31
0.000000000000000E+000 
  0
LINE
  8
0
  10
2.902030509855578E-002 
  20
1.202060395602688E-002 
  30
0.000000000000000E+000 
  11
2.885975084810190E-002 
  21
1.240821620496926E-002 
  31
0.000000000000000E+000 
  0
LINE
  8
0
  10
2.492030094402889E-002 
  20
1.912201946291093E-002 
  30
0.000000000000000E+000 
  11
2.466489601485370E-002 
  21
1.945486964696074E-002 
  31
0.000000000000000E+000 
  0
LINE
  8
0
  10
1.912201946291093E-002 
  20
2.492030094402889E-002 
  30
0.000000000000000E+000 
  11
1.878916927886112E-002 
  21
2.517570587320407E-002 
  31
0.000000000000000E+000 
  0
LINE
  8
0
  10
1.202060395602688E-002 
  20
2.902030509855578E-002 
  30
0.000000000000000E+000 
  11
1.163299170708450E-002 
  21
2.918085934900965E-002 
  31
0.000000000000000E+000 
  0
LINE
  8
0
  10
4.100004154526889E-003 
  20
3.114262341893782E-002 
  30
0.000000000000000E+000 
  11
3.684044974897830E-003 
  21
3.119738548383039E-002 
  31
0.000000000000000E+000 
  0
POLYLINE
  8
0
  66
1
  10
0.000000000000000E+000 
  20
0.000000000000000E+000 
  30
0.000000000000000E+000 
  0
VERTEX
  8
0
  10
7.071067811865479E-003 
  20
7.071067811865475E-003 
  30
0.000000000000000E+000 
  0
VERTEX
  8
0
  10
6.427876136711092E-003 
  20
7.660444397755268E-003 
  30
0.000000000000000E+000 
  0
VERTEX
  8
0
  10
5.735764448726628E-003 
  20
8.191520383220916E-003 
  30
0.000000000000000E+000 
  0
VERTEX
  8
0
  10
5.000000135138582E-003 
  20
8.660253959822086E-003 
  30
0.000000000000000E+000 
  0
VERTEX
  8
0
  10
4.226182805972902E-003 
  20
9.063077782436766E-003 
  30
0.000000000000000E+000 
  0
VERTEX
  8
0
  10
3.420201677646611E-003 
  20
9.396926118908423E-003 
  30
0.000000000000000E+000 
  0
VERTEX
  8
0
  10
2.588190752480214E-003 
  20
9.659258182116050E-003 
  30
0.000000000000000E+000 
  0
VERTEX
  8
0
  10
1.736482135241797E-003 
  20
9.848077466896065E-003 
  30
0.000000000000000E+000 
  0
VERTEX
  8
0
  10
8.715578420120411E-004 
  20
9.961946944650291E-003 
  30
0.000000000000000E+000 
  0
VERTEX
  8
0
  10
4.681337834738786E-010 
  20
9.999999999999988E-003 
  30
0.000000000000000E+000 
  0
SEQEND
  0
POLYLINE
  8
0
  66
1
  10
0.000000000000000E+000 
  20
0.000000000000000E+000 
  30
0.000000000000000E+000 
  0
VERTEX
  8
0
  10
2.093036072312181E-002 
  20
2.093036072312181E-002 
  30
0.000000000000000E+000 
  0
VERTEX
  8
0
  10
1.902651336466483E-002 
  20
2.267491541735560E-002 
  30
0.000000000000000E+000 
  0
VERTEX
  8
0
  10
1.697786276823082E-002 
  20
2.424690033433392E-002 
  30
0.000000000000000E+000 
  0
VERTEX
  8
0
  10
1.480000040001021E-002 
  20
2.563435172107338E-002 
  30
0.000000000000000E+000 
  0
VERTEX
  8
0
  10
1.250950110567979E-002 
  20
2.682671023601284E-002 
  30
0.000000000000000E+000 
  0
VERTEX
  8
0
  10
1.012379696583396E-002 
  20
2.781490131196894E-002 
  30
0.000000000000000E+000 
  0
VERTEX
  8
0
  10
7.661044627341436E-003 
  20
2.859140421906352E-002 
  30
0.000000000000000E+000 
  0
VERTEX
  8
0
  10
5.139987120315723E-003 
  20
2.915030930201236E-002 
  30
0.000000000000000E+000 
  0
VERTEX
  8
0
  10
2.579811212355643E-003 
  20
2.948736295616487E-002 
  30
0.000000000000000E+000 
  0
VERTEX
  8
0
  10
1.385676006229741E-009 
  20
2.959999999999997E-002 
  30
0.000000000000000E+000 
  0
SEQEND
  0
POLYLINE
  8
0
  66
1
  10
0.000000000000000E+000 
  20
0.000000000000000E+000 
  30
0.000000000000000E+000 
  0
VERTEX
  8
0
  10
0.116672618895780 
  20
-6.938893903907228E-018 
  30
0.000000000000000E+000 
  0
VERTEX
  8
0
  10
0.114900099863567 
  20
2.025998645957789E-002 
  30
0.000000000000000E+000 
  0
VERTEX
  8
0
  10
0.109636399854380 
  20
3.990438355582693E-002 
  30
0.000000000000000E+000 
  0
VERTEX
  8
0
  10
0.101041453710419 
  20
5.833630629449564E-002 
  30
0.000000000000000E+000 
  0
VERTEX
  8
0
  10
8.937641448996432E-002 
  20
7.499571009676559E-002 
  30
0.000000000000000E+000 
  0
VERTEX
  8
0
  10
7.499571846478909E-002 
  20
8.937640746835876E-002 
  30
0.000000000000000E+000 
  0
VERTEX
  8
0
  10
5.833631575467908E-002 
  20
0.101041448248580 
  30
0.000000000000000E+000 
  0
VERTEX
  8
0
  10
3.990439382072734E-002 
  20
0.109636396118261 
  30
0.000000000000000E+000 
  0
VERTEX
  8
0
  10
2.025999721730156E-002 
  20
0.114900097966690 
  30
0.000000000000000E+000 
  0
VERTEX
  8
0
  10
1.092367898219981E-008 
  20
0.116672618895780 
  30
0.000000000000000E+000 
  0
SEQEND
  0
LINE
  8
0
  10
0.163341666454092 
  20
0.000000000000000E+000 
  30
0.000000000000000E+000 
  11
0.116672618895780 
  21
0.000000000000000E+000 
  31
0.000000000000000E+000 
  0
LINE
  8
0
  10
1.000179244951995E-017 
  20
0.163341666454092 
  30
0.000000000000000E+000 
  11
7.144137463942819E-018 
  21
0.116672618895780 
  31
0.000000000000000E+000 
  0
POLYLINE
  8
0
  66
1
  10
0.000000000000000E+000 
  20
0.000000000000000E+000 
  30
0.000000000000000E+000 
  0
VERTEX
  8
0
  10
0.163341666454092 
  20
-1.387778780781446E-017 
  30
0.000000000000000E+000 
  0
VERTEX
  8
0
  10
0.160860139808994 
  20
2.836398104340905E-002 
  30
0.000000000000000E+000 
  0
VERTEX
  8
0
  10
0.153490959796132 
  20
5.586613697815768E-002 
  30
0.000000000000000E+000 
  0
VERTEX
  8
0
  10
0.141458035194587 
  20
8.167082881229390E-002 
  30
0.000000000000000E+000 
  0
VERTEX
  8
0
  10
0.125126980285950 
  20
0.104993994135472 
  30
0.000000000000000E+000 
  0
VERTEX
  8
0
  10
0.104994005850705 
  20
0.125126970455702 
  30
0.000000000000000E+000 
  0
VERTEX
  8
0
  10
8.167084205655067E-002 
  20
0.141458027548011 
  30
0.000000000000000E+000 
  0
VERTEX
  8
0
  10
5.586615134901823E-002 
  20
0.153490954565566 
  30
0.000000000000000E+000 
  0
VERTEX
  8
0
  10
2.836399610422215E-002 
  20
0.160860137153366 
  30
0.000000000000000E+000 
  0
VERTEX
  8
0
  10
1.529315052373192E-008 
  20
0.163341666454092 
  30
0.000000000000000E+000 
  0
SEQEND
  0
LINE
  8
0
  10
0.116672618895780 
  20
0.000000000000000E+000 
  30
0.000000000000000E+000 
  11
5.500000000000000E-002 
  21
0.000000000000000E+000 
  31
0.000000000000000E+000 
  0
LINE
  8
0
  10
5.500000000000000E-002 
  20
0.000000000000000E+000 
  30
0.000000000000000E+000 
  11
4.162749925187848E-002 
  21
-1.734723475976807E-018 
  31
-6.381400996485544E-019 
  0
LINE
  8
0
  10
4.162749925187848E-002 
  20
-1.734723475976807E-018 
  30
-6.381400996485544E-019 
  11
3.287289906788516E-002 
  21
1.734723475976807E-018 
  31
-5.039340691591141E-019 
  0
LINE
  8
0
  10
3.287289906788516E-002 
  20
1.734723475976807E-018 
  30
-5.039340691591141E-019 
  11
2.999999999999999E-002 
  21
-8.673617379884035E-019 
  31
-4.598931795931201E-019 
  0
LINE
  8
0
  10
2.999999999999999E-002 
  20
-8.673617379884035E-019 
  30
-4.598931795931201E-019 
  11
2.960000000000000E-002 
  21
0.000000000000000E+000 
  31
0.000000000000000E+000 
  0
LINE
  8
0
  10
2.960000000000000E-002 
  20
0.000000000000000E+000 
  30
0.000000000000000E+000 
  11
2.920000000000000E-002 
  21
-1.734723475976807E-018 
  31
-2.292334989678313E-018 
  0
LINE
  8
0
  10
2.920000000000000E-002 
  20
-1.734723475976807E-018 
  30
-2.292334989678313E-018 
  11
2.603475312795006E-002 
  21
-5.204170427930421E-018 
  31
-2.043848477494412E-018 
  0
LINE
  8
0
  10
2.603475312795006E-002 
  20
-5.204170427930421E-018 
  30
-2.043848477494412E-018 
  11
2.245176479344321E-002 
  21
0.000000000000000E+000 
  31
-1.762567329316354E-018 
  0
LINE
  8
0
  10
2.245176479344321E-002 
  20
0.000000000000000E+000 
  30
-1.762567329316354E-018 
  11
1.000000000000000E-002 
  21
0.000000000000000E+000 
  31
0.000000000000000E+000 
  0
LINE
  8
0
  10
1.000000000000000E-002 
  20
0.000000000000000E+000 
  30
0.000000000000000E+000 
  11
0.000000000000000E+000 
  21
0.000000000000000E+000 
  31
0.000000000000000E+000 
  0
LINE
  8
0
  10
7.144137463942819E-018 
  20
0.116672618895780 
  30
0.000000000000000E+000 
  11
0.000000000000000E+000 
  21
5.500000000000000E-002 
  31
0.000000000000000E+000 
  0
LINE
  8
0
  10
0.000000000000000E+000 
  20
5.500000000000000E-002 
  30
0.000000000000000E+000 
  11
-5.204170427930421E-018 
  21
4.162749925187849E-002 
  31
0.000000000000000E+000 
  0
LINE
  8
0
  10
-5.204170427930421E-018 
  20
4.162749925187849E-002 
  30
0.000000000000000E+000 
  11
-8.673617379884035E-018 
  21
3.287289906788517E-002 
  31
0.000000000000000E+000 
  0
LINE
  8
0
  10
-8.673617379884035E-018 
  20
3.287289906788517E-002 
  30
0.000000000000000E+000 
  11
-5.204170427930421E-018 
  21
3.000000000000000E-002 
  31
0.000000000000000E+000 
  0
LINE
  8
0
  10
-5.204170427930421E-018 
  20
3.000000000000000E-002 
  30
0.000000000000000E+000 
  11
-3.469446951953614E-018 
  21
2.960000000000000E-002 
  31
0.000000000000000E+000 
  0
LINE
  8
0
  10
-3.469446951953614E-018 
  20
2.960000000000000E-002 
  30
0.000000000000000E+000 
  11
-1.387778780781446E-017 
  21
2.920000000000000E-002 
  31
0.000000000000000E+000 
  0
LINE
  8
0
  10
-1.387778780781446E-017 
  20
2.920000000000000E-002 
  30
0.000000000000000E+000 
  11
-1.734723475976807E-017 
  21
2.603475312795006E-002 
  31
0.000000000000000E+000 
  0
LINE
  8
0
  10
-1.734723475976807E-017 
  20
2.603475312795006E-002 
  30
0.000000000000000E+000 
  11
-1.040834085586084E-017 
  21
2.245176479344321E-002 
  31
0.000000000000000E+000 
  0
LINE
  8
0
  10
-1.040834085586084E-017 
  20
2.245176479344321E-002 
  30
0.000000000000000E+000 
  11
-1.734723475976807E-018 
  21
9.999999999999998E-003 
  31
0.000000000000000E+000 
  0
LINE
  8
0
  10
-1.734723475976807E-018 
  20
9.999999999999998E-003 
  30
0.000000000000000E+000 
  11
0.000000000000000E+000 
  21
0.000000000000000E+000 
  31
0.000000000000000E+000 
  0
ENDSEC
  0
EOF
